ISO-10303-21;
HEADER;
FILE_DESCRIPTION((''),'2;1');
FILE_NAME('VCNL36825T','2019-08-30T',('mhsu4'),(''),
'PRO/ENGINEER BY PARAMETRIC TECHNOLOGY CORPORATION, 2014320',
'PRO/ENGINEER BY PARAMETRIC TECHNOLOGY CORPORATION, 2014320','');
FILE_SCHEMA(('CONFIG_CONTROL_DESIGN'));
ENDSEC;
DATA;
#1=DIRECTION('',(0.E0,0.E0,1.E0));
#2=VECTOR('',#1,5.E-1);
#3=CARTESIAN_POINT('',(-6.25E-1,1.E0,-2.4E-1));
#4=LINE('',#3,#2);
#5=DIRECTION('',(0.E0,-1.E0,0.E0));
#6=VECTOR('',#5,2.5E-1);
#7=CARTESIAN_POINT('',(-6.25E-1,4.4E-1,4.E-2));
#8=LINE('',#7,#6);
#9=DIRECTION('',(0.E0,0.E0,1.E0));
#10=VECTOR('',#9,5.E-1);
#11=CARTESIAN_POINT('',(-6.25E-1,-1.E0,-2.4E-1));
#12=LINE('',#11,#10);
#13=DIRECTION('',(1.E0,0.E0,0.E0));
#14=VECTOR('',#13,1.25E0);
#15=CARTESIAN_POINT('',(-6.25E-1,-1.E0,2.6E-1));
#16=LINE('',#15,#14);
#17=DIRECTION('',(0.E0,0.E0,-1.E0));
#18=VECTOR('',#17,5.E-1);
#19=CARTESIAN_POINT('',(6.25E-1,1.E0,2.6E-1));
#20=LINE('',#19,#18);
#21=DIRECTION('',(0.E0,0.E0,1.E0));
#22=VECTOR('',#21,5.E-1);
#23=CARTESIAN_POINT('',(6.25E-1,-1.E0,-2.4E-1));
#24=LINE('',#23,#22);
#25=DIRECTION('',(-1.E0,0.E0,0.E0));
#26=VECTOR('',#25,1.25E0);
#27=CARTESIAN_POINT('',(6.25E-1,1.E0,-2.4E-1));
#28=LINE('',#27,#26);
#29=DIRECTION('',(0.E0,-1.E0,0.E0));
#30=VECTOR('',#29,2.E0);
#31=CARTESIAN_POINT('',(-6.25E-1,1.E0,-2.4E-1));
#32=LINE('',#31,#30);
#33=DIRECTION('',(1.E0,0.E0,0.E0));
#34=VECTOR('',#33,1.25E0);
#35=CARTESIAN_POINT('',(-6.25E-1,-1.E0,-2.4E-1));
#36=LINE('',#35,#34);
#37=DIRECTION('',(0.E0,1.E0,0.E0));
#38=VECTOR('',#37,2.E0);
#39=CARTESIAN_POINT('',(6.25E-1,-1.E0,-2.4E-1));
#40=LINE('',#39,#38);
#41=DIRECTION('',(1.E0,0.E0,0.E0));
#42=VECTOR('',#41,1.25E0);
#43=CARTESIAN_POINT('',(-6.25E-1,1.9E-1,2.6E-1));
#44=LINE('',#43,#42);
#45=DIRECTION('',(0.E0,-1.E0,0.E0));
#46=VECTOR('',#45,1.19E0);
#47=CARTESIAN_POINT('',(6.25E-1,1.9E-1,2.6E-1));
#48=LINE('',#47,#46);
#49=DIRECTION('',(0.E0,1.E0,0.E0));
#50=VECTOR('',#49,1.19E0);
#51=CARTESIAN_POINT('',(-6.25E-1,-1.E0,2.6E-1));
#52=LINE('',#51,#50);
#53=DIRECTION('',(0.E0,0.E0,-1.E0));
#54=VECTOR('',#53,2.2E-1);
#55=CARTESIAN_POINT('',(-6.25E-1,1.9E-1,2.6E-1));
#56=LINE('',#55,#54);
#57=DIRECTION('',(1.E0,0.E0,0.E0));
#58=VECTOR('',#57,1.25E0);
#59=CARTESIAN_POINT('',(-6.25E-1,1.9E-1,4.E-2));
#60=LINE('',#59,#58);
#61=DIRECTION('',(0.E0,0.E0,1.E0));
#62=VECTOR('',#61,2.2E-1);
#63=CARTESIAN_POINT('',(6.25E-1,1.9E-1,4.E-2));
#64=LINE('',#63,#62);
#65=DIRECTION('',(0.E0,-1.E0,0.E0));
#66=VECTOR('',#65,2.5E-1);
#67=CARTESIAN_POINT('',(6.25E-1,4.4E-1,4.E-2));
#68=LINE('',#67,#66);
#69=DIRECTION('',(1.E0,0.E0,0.E0));
#70=VECTOR('',#69,1.25E0);
#71=CARTESIAN_POINT('',(-6.25E-1,4.4E-1,2.6E-1));
#72=LINE('',#71,#70);
#73=DIRECTION('',(0.E0,0.E0,-1.E0));
#74=VECTOR('',#73,2.2E-1);
#75=CARTESIAN_POINT('',(6.25E-1,4.4E-1,2.6E-1));
#76=LINE('',#75,#74);
#77=DIRECTION('',(-1.E0,0.E0,0.E0));
#78=VECTOR('',#77,1.25E0);
#79=CARTESIAN_POINT('',(6.25E-1,4.4E-1,4.E-2));
#80=LINE('',#79,#78);
#81=DIRECTION('',(0.E0,0.E0,1.E0));
#82=VECTOR('',#81,2.2E-1);
#83=CARTESIAN_POINT('',(-6.25E-1,4.4E-1,4.E-2));
#84=LINE('',#83,#82);
#85=DIRECTION('',(0.E0,1.E0,0.E0));
#86=VECTOR('',#85,5.6E-1);
#87=CARTESIAN_POINT('',(-6.25E-1,4.4E-1,2.6E-1));
#88=LINE('',#87,#86);
#89=DIRECTION('',(1.E0,0.E0,0.E0));
#90=VECTOR('',#89,1.25E0);
#91=CARTESIAN_POINT('',(-6.25E-1,1.E0,2.6E-1));
#92=LINE('',#91,#90);
#93=DIRECTION('',(0.E0,-1.E0,0.E0));
#94=VECTOR('',#93,5.6E-1);
#95=CARTESIAN_POINT('',(6.25E-1,1.E0,2.6E-1));
#96=LINE('',#95,#94);
#97=CARTESIAN_POINT('',(6.25E-1,4.4E-1,4.E-2));
#98=CARTESIAN_POINT('',(6.25E-1,1.9E-1,4.E-2));
#99=VERTEX_POINT('',#97);
#100=VERTEX_POINT('',#98);
#101=CARTESIAN_POINT('',(6.25E-1,4.4E-1,2.6E-1));
#102=VERTEX_POINT('',#101);
#103=CARTESIAN_POINT('',(6.25E-1,1.9E-1,2.6E-1));
#104=VERTEX_POINT('',#103);
#105=CARTESIAN_POINT('',(-6.25E-1,4.4E-1,4.E-2));
#106=VERTEX_POINT('',#105);
#107=CARTESIAN_POINT('',(-6.25E-1,1.9E-1,4.E-2));
#108=VERTEX_POINT('',#107);
#109=CARTESIAN_POINT('',(-6.25E-1,1.9E-1,2.6E-1));
#110=VERTEX_POINT('',#109);
#111=CARTESIAN_POINT('',(-6.25E-1,4.4E-1,2.6E-1));
#112=VERTEX_POINT('',#111);
#113=CARTESIAN_POINT('',(-6.25E-1,1.E0,2.6E-1));
#114=VERTEX_POINT('',#113);
#115=CARTESIAN_POINT('',(6.25E-1,1.E0,2.6E-1));
#116=VERTEX_POINT('',#115);
#117=CARTESIAN_POINT('',(6.25E-1,-1.E0,2.6E-1));
#118=VERTEX_POINT('',#117);
#119=CARTESIAN_POINT('',(-6.25E-1,-1.E0,2.6E-1));
#120=VERTEX_POINT('',#119);
#121=CARTESIAN_POINT('',(6.25E-1,1.E0,-2.4E-1));
#122=CARTESIAN_POINT('',(-6.25E-1,1.E0,-2.4E-1));
#123=VERTEX_POINT('',#121);
#124=VERTEX_POINT('',#122);
#125=CARTESIAN_POINT('',(-6.25E-1,-1.E0,-2.4E-1));
#126=VERTEX_POINT('',#125);
#127=CARTESIAN_POINT('',(6.25E-1,-1.E0,-2.4E-1));
#128=VERTEX_POINT('',#127);
#129=CARTESIAN_POINT('',(0.E0,1.E0,1.3E-1));
#130=DIRECTION('',(0.E0,1.E0,0.E0));
#131=DIRECTION('',(-1.E0,0.E0,0.E0));
#132=AXIS2_PLACEMENT_3D('',#129,#130,#131);
#133=PLANE('',#132);
#135=ORIENTED_EDGE('',*,*,#134,.F.);
#137=ORIENTED_EDGE('',*,*,#136,.F.);
#139=ORIENTED_EDGE('',*,*,#138,.F.);
#141=ORIENTED_EDGE('',*,*,#140,.F.);
#142=EDGE_LOOP('',(#135,#137,#139,#141));
#143=FACE_OUTER_BOUND('',#142,.F.);
#145=CARTESIAN_POINT('',(-6.25E-1,0.E0,1.3E-1));
#146=DIRECTION('',(1.E0,0.E0,0.E0));
#147=DIRECTION('',(0.E0,-1.E0,0.E0));
#148=AXIS2_PLACEMENT_3D('',#145,#146,#147);
#149=PLANE('',#148);
#151=ORIENTED_EDGE('',*,*,#150,.F.);
#153=ORIENTED_EDGE('',*,*,#152,.F.);
#154=ORIENTED_EDGE('',*,*,#134,.T.);
#156=ORIENTED_EDGE('',*,*,#155,.F.);
#158=ORIENTED_EDGE('',*,*,#157,.F.);
#160=ORIENTED_EDGE('',*,*,#159,.T.);
#162=ORIENTED_EDGE('',*,*,#161,.F.);
#164=ORIENTED_EDGE('',*,*,#163,.F.);
#165=EDGE_LOOP('',(#151,#153,#154,#156,#158,#160,#162,#164));
#166=FACE_OUTER_BOUND('',#165,.F.);
#168=CARTESIAN_POINT('',(0.E0,-1.E0,1.3E-1));
#169=DIRECTION('',(0.E0,1.E0,0.E0));
#170=DIRECTION('',(1.E0,0.E0,0.E0));
#171=AXIS2_PLACEMENT_3D('',#168,#169,#170);
#172=PLANE('',#171);
#174=ORIENTED_EDGE('',*,*,#173,.F.);
#176=ORIENTED_EDGE('',*,*,#175,.F.);
#177=ORIENTED_EDGE('',*,*,#150,.T.);
#179=ORIENTED_EDGE('',*,*,#178,.T.);
#180=EDGE_LOOP('',(#174,#176,#177,#179));
#181=FACE_OUTER_BOUND('',#180,.F.);
#183=CARTESIAN_POINT('',(6.25E-1,0.E0,1.3E-1));
#184=DIRECTION('',(1.E0,0.E0,0.E0));
#185=DIRECTION('',(0.E0,1.E0,0.E0));
#186=AXIS2_PLACEMENT_3D('',#183,#184,#185);
#187=PLANE('',#186);
#188=ORIENTED_EDGE('',*,*,#138,.T.);
#190=ORIENTED_EDGE('',*,*,#189,.F.);
#191=ORIENTED_EDGE('',*,*,#173,.T.);
#193=ORIENTED_EDGE('',*,*,#192,.F.);
#195=ORIENTED_EDGE('',*,*,#194,.F.);
#197=ORIENTED_EDGE('',*,*,#196,.F.);
#199=ORIENTED_EDGE('',*,*,#198,.F.);
#201=ORIENTED_EDGE('',*,*,#200,.F.);
#202=EDGE_LOOP('',(#188,#190,#191,#193,#195,#197,#199,#201));
#203=FACE_OUTER_BOUND('',#202,.F.);
#205=CARTESIAN_POINT('',(0.E0,0.E0,-2.4E-1));
#206=DIRECTION('',(0.E0,0.E0,1.E0));
#207=DIRECTION('',(0.E0,-1.E0,0.E0));
#208=AXIS2_PLACEMENT_3D('',#205,#206,#207);
#209=PLANE('',#208);
#210=ORIENTED_EDGE('',*,*,#136,.T.);
#211=ORIENTED_EDGE('',*,*,#152,.T.);
#212=ORIENTED_EDGE('',*,*,#175,.T.);
#213=ORIENTED_EDGE('',*,*,#189,.T.);
#214=EDGE_LOOP('',(#210,#211,#212,#213));
#215=FACE_OUTER_BOUND('',#214,.F.);
#217=CARTESIAN_POINT('',(0.E0,-4.05E-1,2.6E-1));
#218=DIRECTION('',(0.E0,0.E0,1.E0));
#219=DIRECTION('',(0.E0,-1.E0,0.E0));
#220=AXIS2_PLACEMENT_3D('',#217,#218,#219);
#221=PLANE('',#220);
#223=ORIENTED_EDGE('',*,*,#222,.T.);
#224=ORIENTED_EDGE('',*,*,#192,.T.);
#225=ORIENTED_EDGE('',*,*,#178,.F.);
#226=ORIENTED_EDGE('',*,*,#163,.T.);
#227=EDGE_LOOP('',(#223,#224,#225,#226));
#228=FACE_OUTER_BOUND('',#227,.F.);
#230=CARTESIAN_POINT('',(0.E0,1.9E-1,1.5E-1));
#231=DIRECTION('',(0.E0,1.E0,0.E0));
#232=DIRECTION('',(1.E0,0.E0,0.E0));
#233=AXIS2_PLACEMENT_3D('',#230,#231,#232);
#234=PLANE('',#233);
#235=ORIENTED_EDGE('',*,*,#222,.F.);
#236=ORIENTED_EDGE('',*,*,#161,.T.);
#238=ORIENTED_EDGE('',*,*,#237,.T.);
#239=ORIENTED_EDGE('',*,*,#194,.T.);
#240=EDGE_LOOP('',(#235,#236,#238,#239));
#241=FACE_OUTER_BOUND('',#240,.F.);
#243=CARTESIAN_POINT('',(0.E0,3.15E-1,4.E-2));
#244=DIRECTION('',(0.E0,0.E0,1.E0));
#245=DIRECTION('',(0.E0,-1.E0,0.E0));
#246=AXIS2_PLACEMENT_3D('',#243,#244,#245);
#247=PLANE('',#246);
#248=ORIENTED_EDGE('',*,*,#159,.F.);
#250=ORIENTED_EDGE('',*,*,#249,.F.);
#251=ORIENTED_EDGE('',*,*,#196,.T.);
#252=ORIENTED_EDGE('',*,*,#237,.F.);
#253=EDGE_LOOP('',(#248,#250,#251,#252));
#254=FACE_OUTER_BOUND('',#253,.F.);
#256=CARTESIAN_POINT('',(0.E0,4.4E-1,1.5E-1));
#257=DIRECTION('',(0.E0,1.E0,0.E0));
#258=DIRECTION('',(-1.E0,0.E0,0.E0));
#259=AXIS2_PLACEMENT_3D('',#256,#257,#258);
#260=PLANE('',#259);
#262=ORIENTED_EDGE('',*,*,#261,.T.);
#263=ORIENTED_EDGE('',*,*,#198,.T.);
#264=ORIENTED_EDGE('',*,*,#249,.T.);
#265=ORIENTED_EDGE('',*,*,#157,.T.);
#266=EDGE_LOOP('',(#262,#263,#264,#265));
#267=FACE_OUTER_BOUND('',#266,.F.);
#269=CARTESIAN_POINT('',(0.E0,7.2E-1,2.6E-1));
#270=DIRECTION('',(0.E0,0.E0,1.E0));
#271=DIRECTION('',(0.E0,-1.E0,0.E0));
#272=AXIS2_PLACEMENT_3D('',#269,#270,#271);
#273=PLANE('',#272);
#274=ORIENTED_EDGE('',*,*,#261,.F.);
#275=ORIENTED_EDGE('',*,*,#155,.T.);
#276=ORIENTED_EDGE('',*,*,#140,.T.);
#277=ORIENTED_EDGE('',*,*,#200,.T.);
#278=EDGE_LOOP('',(#274,#275,#276,#277));
#279=FACE_OUTER_BOUND('',#278,.F.);
#281=CLOSED_SHELL('',(#144,#167,#182,#204,#216,#229,#242,#255,#268,#280));
#282=MANIFOLD_SOLID_BREP('',#281);
#283=CARTESIAN_POINT('',(0.E0,0.E0,0.E0));
#284=DIRECTION('',(0.E0,0.E0,1.E0));
#285=DIRECTION('',(1.E0,0.E0,0.E0));
#286=AXIS2_PLACEMENT_3D('PRT_CSYS_DEF',#283,#284,#285);
#287=DIRECTION('',(1.E0,0.E0,0.E0));
#288=VECTOR('',#287,3.5E-1);
#289=CARTESIAN_POINT('',(-5.45E-1,9.2E-1,-2.4E-1));
#290=LINE('',#289,#288);
#293=DIRECTION('',(0.E0,-1.E0,0.E0));
#294=VECTOR('',#293,4.5E-1);
#295=CARTESIAN_POINT('',(-1.95E-1,9.2E-1,-2.4E-1));
#296=LINE('',#295,#294);
#299=DIRECTION('',(-1.E0,0.E0,0.E0));
#300=VECTOR('',#299,3.5E-1);
#301=CARTESIAN_POINT('',(-1.95E-1,4.7E-1,-2.4E-1));
#302=LINE('',#301,#300);
#305=DIRECTION('',(0.E0,1.E0,0.E0));
#306=VECTOR('',#305,4.5E-1);
#307=CARTESIAN_POINT('',(-5.45E-1,4.7E-1,-2.4E-1));
#308=LINE('',#307,#306);
#313=DIRECTION('',(1.E0,0.E0,0.E0));
#314=VECTOR('',#313,3.5E-1);
#315=CARTESIAN_POINT('',(-5.45E-1,2.2E-1,-2.4E-1));
#316=LINE('',#315,#314);
#319=DIRECTION('',(0.E0,-1.E0,0.E0));
#320=VECTOR('',#319,4.5E-1);
#321=CARTESIAN_POINT('',(-1.95E-1,2.2E-1,-2.4E-1));
#322=LINE('',#321,#320);
#325=DIRECTION('',(-1.E0,0.E0,0.E0));
#326=VECTOR('',#325,3.5E-1);
#327=CARTESIAN_POINT('',(-1.95E-1,-2.3E-1,-2.4E-1));
#328=LINE('',#327,#326);
#331=DIRECTION('',(0.E0,1.E0,0.E0));
#332=VECTOR('',#331,4.5E-1);
#333=CARTESIAN_POINT('',(-5.45E-1,-2.3E-1,-2.4E-1));
#334=LINE('',#333,#332);
#338=DIRECTION('',(1.E0,0.E0,0.E0));
#339=VECTOR('',#338,3.5E-1);
#340=CARTESIAN_POINT('',(-5.45E-1,-4.8E-1,-2.4E-1));
#341=LINE('',#340,#339);
#344=DIRECTION('',(0.E0,-1.E0,0.E0));
#345=VECTOR('',#344,4.5E-1);
#346=CARTESIAN_POINT('',(-1.95E-1,-4.8E-1,-2.4E-1));
#347=LINE('',#346,#345);
#350=DIRECTION('',(-1.E0,0.E0,0.E0));
#351=VECTOR('',#350,3.5E-1);
#352=CARTESIAN_POINT('',(-1.95E-1,-9.3E-1,-2.4E-1));
#353=LINE('',#352,#351);
#356=DIRECTION('',(0.E0,1.E0,0.E0));
#357=VECTOR('',#356,4.5E-1);
#358=CARTESIAN_POINT('',(-5.45E-1,-9.3E-1,-2.4E-1));
#359=LINE('',#358,#357);
#363=DIRECTION('',(0.E0,-1.E0,0.E0));
#364=VECTOR('',#363,4.5E-1);
#365=CARTESIAN_POINT('',(5.45E-1,9.2E-1,-2.4E-1));
#366=LINE('',#365,#364);
#369=DIRECTION('',(-1.E0,0.E0,0.E0));
#370=VECTOR('',#369,3.5E-1);
#371=CARTESIAN_POINT('',(5.45E-1,4.7E-1,-2.4E-1));
#372=LINE('',#371,#370);
#375=DIRECTION('',(0.E0,1.E0,0.E0));
#376=VECTOR('',#375,4.5E-1);
#377=CARTESIAN_POINT('',(1.95E-1,4.7E-1,-2.4E-1));
#378=LINE('',#377,#376);
#381=DIRECTION('',(1.E0,0.E0,0.E0));
#382=VECTOR('',#381,3.5E-1);
#383=CARTESIAN_POINT('',(1.95E-1,9.2E-1,-2.4E-1));
#384=LINE('',#383,#382);
#388=DIRECTION('',(0.E0,-1.E0,0.E0));
#389=VECTOR('',#388,4.5E-1);
#390=CARTESIAN_POINT('',(5.45E-1,2.2E-1,-2.4E-1));
#391=LINE('',#390,#389);
#394=DIRECTION('',(-1.E0,0.E0,0.E0));
#395=VECTOR('',#394,3.5E-1);
#396=CARTESIAN_POINT('',(5.45E-1,-2.3E-1,-2.4E-1));
#397=LINE('',#396,#395);
#400=DIRECTION('',(0.E0,1.E0,0.E0));
#401=VECTOR('',#400,4.5E-1);
#402=CARTESIAN_POINT('',(1.95E-1,-2.3E-1,-2.4E-1));
#403=LINE('',#402,#401);
#406=DIRECTION('',(1.E0,0.E0,0.E0));
#407=VECTOR('',#406,3.5E-1);
#408=CARTESIAN_POINT('',(1.95E-1,2.2E-1,-2.4E-1));
#409=LINE('',#408,#407);
#413=DIRECTION('',(7.071067811865E-1,7.071067811865E-1,0.E0));
#414=VECTOR('',#413,2.121320343560E-1);
#415=CARTESIAN_POINT('',(2.E-1,-6.3E-1,-2.4E-1));
#416=LINE('',#415,#414);
#419=DIRECTION('',(1.E0,0.E0,0.E0));
#420=VECTOR('',#419,2.E-1);
#421=CARTESIAN_POINT('',(3.5E-1,-4.8E-1,-2.4E-1));
#422=LINE('',#421,#420);
#425=DIRECTION('',(0.E0,-1.E0,0.E0));
#426=VECTOR('',#425,4.5E-1);
#427=CARTESIAN_POINT('',(5.5E-1,-4.8E-1,-2.4E-1));
#428=LINE('',#427,#426);
#431=DIRECTION('',(-1.E0,0.E0,0.E0));
#432=VECTOR('',#431,3.5E-1);
#433=CARTESIAN_POINT('',(5.5E-1,-9.3E-1,-2.4E-1));
#434=LINE('',#433,#432);
#437=DIRECTION('',(0.E0,1.E0,0.E0));
#438=VECTOR('',#437,3.E-1);
#439=CARTESIAN_POINT('',(2.E-1,-9.3E-1,-2.4E-1));
#440=LINE('',#439,#438);
#444=CARTESIAN_POINT('',(0.E0,7.43E-1,1.1E-1));
#445=DIRECTION('',(0.E0,0.E0,1.E0));
#446=DIRECTION('',(0.E0,-1.E0,0.E0));
#447=AXIS2_PLACEMENT_3D('',#444,#445,#446);
#451=CARTESIAN_POINT('',(0.E0,7.43E-1,1.1E-1));
#452=DIRECTION('',(0.E0,0.E0,1.E0));
#453=DIRECTION('',(0.E0,1.E0,0.E0));
#454=AXIS2_PLACEMENT_3D('',#451,#452,#453);
#459=DIRECTION('',(-1.E0,0.E0,0.E0));
#460=VECTOR('',#459,2.93E-1);
#461=CARTESIAN_POINT('',(1.465E-1,-7.75E-2,1.1E-1));
#462=LINE('',#461,#460);
#465=DIRECTION('',(0.E0,-1.E0,0.E0));
#466=VECTOR('',#465,1.03E-1);
#467=CARTESIAN_POINT('',(-1.465E-1,-7.75E-2,1.1E-1));
#468=LINE('',#467,#466);
#471=DIRECTION('',(1.E0,0.E0,0.E0));
#472=VECTOR('',#471,2.93E-1);
#473=CARTESIAN_POINT('',(-1.465E-1,-1.805E-1,1.1E-1));
#474=LINE('',#473,#472);
#477=DIRECTION('',(0.E0,1.E0,0.E0));
#478=VECTOR('',#477,1.03E-1);
#479=CARTESIAN_POINT('',(1.465E-1,-1.805E-1,1.1E-1));
#480=LINE('',#479,#478);
#485=DIMENSIONAL_EXPONENTS(0.E0,0.E0,0.E0,0.E0,0.E0,0.E0,0.E0);
#487=PLANE_ANGLE_MEASURE_WITH_UNIT(PLANE_ANGLE_MEASURE(1.745329251994E-2),#486);
#488=(CONVERSION_BASED_UNIT('DEGREE',#487)NAMED_UNIT(*)PLANE_ANGLE_UNIT());
#490=UNCERTAINTY_MEASURE_WITH_UNIT(LENGTH_MEASURE(2.410816253741E-4),#484,
'closure',
'Maximum model space distance between geometric entities at asserted connectivities');
#312=GEOMETRIC_SET('',(#311,#337,#362,#387,#412,#443,#458,#483));
#495=SHAPE_REPRESENTATION_RELATIONSHIP('','',#494,#492);
#496=SHAPE_REPRESENTATION_RELATIONSHIP('','',#494,#493);
#497=APPLICATION_CONTEXT(
'CONFIGURATION CONTROLLED 3D DESIGNS OF MECHANICAL PARTS AND ASSEMBLIES');
#498=APPLICATION_PROTOCOL_DEFINITION('international standard',
'config_control_design',1994,#497);
#499=DESIGN_CONTEXT('',#497,'design');
#500=MECHANICAL_CONTEXT('',#497,'mechanical');
#501=PRODUCT('VCNL36825T','VCNL36825T','NOT SPECIFIED',(#500));
#502=PRODUCT_DEFINITION_FORMATION_WITH_SPECIFIED_SOURCE('1','LAST_VERSION',#501,
.MADE.);
#506=PRODUCT_CATEGORY('part','');
#507=PRODUCT_RELATED_PRODUCT_CATEGORY('detail','',(#501));
#508=PRODUCT_CATEGORY_RELATIONSHIP('','',#506,#507);
#509=SECURITY_CLASSIFICATION_LEVEL('unclassified');
#510=SECURITY_CLASSIFICATION('','',#509);
#511=CC_DESIGN_SECURITY_CLASSIFICATION(#510,(#502));
#512=APPROVAL_STATUS('approved');
#513=APPROVAL(#512,'');
#514=CC_DESIGN_APPROVAL(#513,(#510,#502,#503));
#515=CALENDAR_DATE(119,30,8);
#516=COORDINATED_UNIVERSAL_TIME_OFFSET(8,0,.AHEAD.);
#517=LOCAL_TIME(14,23,3.2E1,#516);
#518=DATE_AND_TIME(#515,#517);
#519=APPROVAL_DATE_TIME(#518,#513);
#520=DATE_TIME_ROLE('creation_date');
#521=CC_DESIGN_DATE_AND_TIME_ASSIGNMENT(#518,#520,(#503));
#522=DATE_TIME_ROLE('classification_date');
#523=CC_DESIGN_DATE_AND_TIME_ASSIGNMENT(#518,#522,(#510));
#524=PERSON('UNSPECIFIED','UNSPECIFIED',$,$,$,$);
#525=ORGANIZATION('UNSPECIFIED','UNSPECIFIED','UNSPECIFIED');
#526=PERSON_AND_ORGANIZATION(#524,#525);
#527=APPROVAL_ROLE('approver');
#528=APPROVAL_PERSON_ORGANIZATION(#526,#513,#527);
#529=PERSON_AND_ORGANIZATION_ROLE('creator');
#530=CC_DESIGN_PERSON_AND_ORGANIZATION_ASSIGNMENT(#526,#529,(#502,#503));
#531=PERSON_AND_ORGANIZATION_ROLE('design_supplier');
#532=CC_DESIGN_PERSON_AND_ORGANIZATION_ASSIGNMENT(#526,#531,(#502));
#533=PERSON_AND_ORGANIZATION_ROLE('classification_officer');
#534=CC_DESIGN_PERSON_AND_ORGANIZATION_ASSIGNMENT(#526,#533,(#510));
#535=PERSON_AND_ORGANIZATION_ROLE('design_owner');
#536=CC_DESIGN_PERSON_AND_ORGANIZATION_ASSIGNMENT(#526,#535,(#501));
#134=EDGE_CURVE('',#124,#114,#4,.T.);
#136=EDGE_CURVE('',#123,#124,#28,.T.);
#138=EDGE_CURVE('',#116,#123,#20,.T.);
#140=EDGE_CURVE('',#114,#116,#92,.T.);
#144=ADVANCED_FACE('',(#143),#133,.T.);
#150=EDGE_CURVE('',#126,#120,#12,.T.);
#152=EDGE_CURVE('',#124,#126,#32,.T.);
#155=EDGE_CURVE('',#112,#114,#88,.T.);
#157=EDGE_CURVE('',#106,#112,#84,.T.);
#159=EDGE_CURVE('',#106,#108,#8,.T.);
#161=EDGE_CURVE('',#110,#108,#56,.T.);
#163=EDGE_CURVE('',#120,#110,#52,.T.);
#167=ADVANCED_FACE('',(#166),#149,.F.);
#173=EDGE_CURVE('',#128,#118,#24,.T.);
#175=EDGE_CURVE('',#126,#128,#36,.T.);
#178=EDGE_CURVE('',#120,#118,#16,.T.);
#182=ADVANCED_FACE('',(#181),#172,.F.);
#189=EDGE_CURVE('',#128,#123,#40,.T.);
#192=EDGE_CURVE('',#104,#118,#48,.T.);
#194=EDGE_CURVE('',#100,#104,#64,.T.);
#196=EDGE_CURVE('',#99,#100,#68,.T.);
#198=EDGE_CURVE('',#102,#99,#76,.T.);
#200=EDGE_CURVE('',#116,#102,#96,.T.);
#204=ADVANCED_FACE('',(#203),#187,.T.);
#216=ADVANCED_FACE('',(#215),#209,.F.);
#222=EDGE_CURVE('',#110,#104,#44,.T.);
#229=ADVANCED_FACE('',(#228),#221,.T.);
#237=EDGE_CURVE('',#108,#100,#60,.T.);
#242=ADVANCED_FACE('',(#241),#234,.T.);
#249=EDGE_CURVE('',#99,#106,#80,.T.);
#255=ADVANCED_FACE('',(#254),#247,.T.);
#261=EDGE_CURVE('',#112,#102,#72,.T.);
#268=ADVANCED_FACE('',(#267),#260,.F.);
#280=ADVANCED_FACE('',(#279),#273,.T.);
#291=TRIMMED_CURVE('',#290,(PARAMETER_VALUE(0.E0)),(PARAMETER_VALUE(1.E0)),.T.,
.UNSPECIFIED.);
#292=COMPOSITE_CURVE_SEGMENT(.CONTINUOUS.,.T.,#291);
#297=TRIMMED_CURVE('',#296,(PARAMETER_VALUE(0.E0)),(PARAMETER_VALUE(1.E0)),.T.,
.UNSPECIFIED.);
#298=COMPOSITE_CURVE_SEGMENT(.CONTINUOUS.,.T.,#297);
#303=TRIMMED_CURVE('',#302,(PARAMETER_VALUE(0.E0)),(PARAMETER_VALUE(1.E0)),.T.,
.UNSPECIFIED.);
#304=COMPOSITE_CURVE_SEGMENT(.CONTINUOUS.,.T.,#303);
#309=TRIMMED_CURVE('',#308,(PARAMETER_VALUE(0.E0)),(PARAMETER_VALUE(1.E0)),.T.,
.UNSPECIFIED.);
#310=COMPOSITE_CURVE_SEGMENT(.CONTINUOUS.,.T.,#309);
#311=COMPOSITE_CURVE('',(#292,#298,#304,#310),.F.);
#317=TRIMMED_CURVE('',#316,(PARAMETER_VALUE(0.E0)),(PARAMETER_VALUE(1.E0)),.T.,
.UNSPECIFIED.);
#318=COMPOSITE_CURVE_SEGMENT(.CONTINUOUS.,.T.,#317);
#323=TRIMMED_CURVE('',#322,(PARAMETER_VALUE(0.E0)),(PARAMETER_VALUE(1.E0)),.T.,
.UNSPECIFIED.);
#324=COMPOSITE_CURVE_SEGMENT(.CONTINUOUS.,.T.,#323);
#329=TRIMMED_CURVE('',#328,(PARAMETER_VALUE(0.E0)),(PARAMETER_VALUE(1.E0)),.T.,
.UNSPECIFIED.);
#330=COMPOSITE_CURVE_SEGMENT(.CONTINUOUS.,.T.,#329);
#335=TRIMMED_CURVE('',#334,(PARAMETER_VALUE(0.E0)),(PARAMETER_VALUE(1.E0)),.T.,
.UNSPECIFIED.);
#336=COMPOSITE_CURVE_SEGMENT(.CONTINUOUS.,.T.,#335);
#337=COMPOSITE_CURVE('',(#318,#324,#330,#336),.F.);
#342=TRIMMED_CURVE('',#341,(PARAMETER_VALUE(0.E0)),(PARAMETER_VALUE(1.E0)),.T.,
.UNSPECIFIED.);
#343=COMPOSITE_CURVE_SEGMENT(.CONTINUOUS.,.T.,#342);
#348=TRIMMED_CURVE('',#347,(PARAMETER_VALUE(0.E0)),(PARAMETER_VALUE(1.E0)),.T.,
.UNSPECIFIED.);
#349=COMPOSITE_CURVE_SEGMENT(.CONTINUOUS.,.T.,#348);
#354=TRIMMED_CURVE('',#353,(PARAMETER_VALUE(0.E0)),(PARAMETER_VALUE(1.E0)),.T.,
.UNSPECIFIED.);
#355=COMPOSITE_CURVE_SEGMENT(.CONTINUOUS.,.T.,#354);
#360=TRIMMED_CURVE('',#359,(PARAMETER_VALUE(0.E0)),(PARAMETER_VALUE(1.E0)),.T.,
.UNSPECIFIED.);
#361=COMPOSITE_CURVE_SEGMENT(.CONTINUOUS.,.T.,#360);
#362=COMPOSITE_CURVE('',(#343,#349,#355,#361),.F.);
#367=TRIMMED_CURVE('',#366,(PARAMETER_VALUE(0.E0)),(PARAMETER_VALUE(1.E0)),.T.,
.UNSPECIFIED.);
#368=COMPOSITE_CURVE_SEGMENT(.CONTINUOUS.,.T.,#367);
#373=TRIMMED_CURVE('',#372,(PARAMETER_VALUE(0.E0)),(PARAMETER_VALUE(1.E0)),.T.,
.UNSPECIFIED.);
#374=COMPOSITE_CURVE_SEGMENT(.CONTINUOUS.,.T.,#373);
#379=TRIMMED_CURVE('',#378,(PARAMETER_VALUE(0.E0)),(PARAMETER_VALUE(1.E0)),.T.,
.UNSPECIFIED.);
#380=COMPOSITE_CURVE_SEGMENT(.CONTINUOUS.,.T.,#379);
#385=TRIMMED_CURVE('',#384,(PARAMETER_VALUE(0.E0)),(PARAMETER_VALUE(1.E0)),.T.,
.UNSPECIFIED.);
#386=COMPOSITE_CURVE_SEGMENT(.CONTINUOUS.,.T.,#385);
#387=COMPOSITE_CURVE('',(#368,#374,#380,#386),.F.);
#392=TRIMMED_CURVE('',#391,(PARAMETER_VALUE(0.E0)),(PARAMETER_VALUE(1.E0)),.T.,
.UNSPECIFIED.);
#393=COMPOSITE_CURVE_SEGMENT(.CONTINUOUS.,.T.,#392);
#398=TRIMMED_CURVE('',#397,(PARAMETER_VALUE(0.E0)),(PARAMETER_VALUE(1.E0)),.T.,
.UNSPECIFIED.);
#399=COMPOSITE_CURVE_SEGMENT(.CONTINUOUS.,.T.,#398);
#404=TRIMMED_CURVE('',#403,(PARAMETER_VALUE(0.E0)),(PARAMETER_VALUE(1.E0)),.T.,
.UNSPECIFIED.);
#405=COMPOSITE_CURVE_SEGMENT(.CONTINUOUS.,.T.,#404);
#410=TRIMMED_CURVE('',#409,(PARAMETER_VALUE(0.E0)),(PARAMETER_VALUE(1.E0)),.T.,
.UNSPECIFIED.);
#411=COMPOSITE_CURVE_SEGMENT(.CONTINUOUS.,.T.,#410);
#412=COMPOSITE_CURVE('',(#393,#399,#405,#411),.F.);
#417=TRIMMED_CURVE('',#416,(PARAMETER_VALUE(0.E0)),(PARAMETER_VALUE(1.E0)),.T.,
.UNSPECIFIED.);
#418=COMPOSITE_CURVE_SEGMENT(.CONTINUOUS.,.T.,#417);
#423=TRIMMED_CURVE('',#422,(PARAMETER_VALUE(0.E0)),(PARAMETER_VALUE(1.E0)),.T.,
.UNSPECIFIED.);
#424=COMPOSITE_CURVE_SEGMENT(.CONTINUOUS.,.T.,#423);
#429=TRIMMED_CURVE('',#428,(PARAMETER_VALUE(0.E0)),(PARAMETER_VALUE(1.E0)),.T.,
.UNSPECIFIED.);
#430=COMPOSITE_CURVE_SEGMENT(.CONTINUOUS.,.T.,#429);
#435=TRIMMED_CURVE('',#434,(PARAMETER_VALUE(0.E0)),(PARAMETER_VALUE(1.E0)),.T.,
.UNSPECIFIED.);
#436=COMPOSITE_CURVE_SEGMENT(.CONTINUOUS.,.T.,#435);
#441=TRIMMED_CURVE('',#440,(PARAMETER_VALUE(0.E0)),(PARAMETER_VALUE(1.E0)),.T.,
.UNSPECIFIED.);
#442=COMPOSITE_CURVE_SEGMENT(.CONTINUOUS.,.T.,#441);
#443=COMPOSITE_CURVE('',(#418,#424,#430,#436,#442),.F.);
#448=CIRCLE('',#447,8.E-3);
#449=TRIMMED_CURVE('',#448,(PARAMETER_VALUE(0.E0)),(PARAMETER_VALUE(1.8E2)),.T.,
.UNSPECIFIED.);
#450=COMPOSITE_CURVE_SEGMENT(.CONTINUOUS.,.T.,#449);
#455=CIRCLE('',#454,8.E-3);
#456=TRIMMED_CURVE('',#455,(PARAMETER_VALUE(0.E0)),(PARAMETER_VALUE(1.8E2)),.T.,
.UNSPECIFIED.);
#457=COMPOSITE_CURVE_SEGMENT(.CONTINUOUS.,.T.,#456);
#458=COMPOSITE_CURVE('',(#450,#457),.F.);
#463=TRIMMED_CURVE('',#462,(PARAMETER_VALUE(0.E0)),(PARAMETER_VALUE(1.E0)),.T.,
.UNSPECIFIED.);
#464=COMPOSITE_CURVE_SEGMENT(.CONTINUOUS.,.T.,#463);
#469=TRIMMED_CURVE('',#468,(PARAMETER_VALUE(0.E0)),(PARAMETER_VALUE(1.E0)),.T.,
.UNSPECIFIED.);
#470=COMPOSITE_CURVE_SEGMENT(.CONTINUOUS.,.T.,#469);
#475=TRIMMED_CURVE('',#474,(PARAMETER_VALUE(0.E0)),(PARAMETER_VALUE(1.E0)),.T.,
.UNSPECIFIED.);
#476=COMPOSITE_CURVE_SEGMENT(.CONTINUOUS.,.T.,#475);
#481=TRIMMED_CURVE('',#480,(PARAMETER_VALUE(0.E0)),(PARAMETER_VALUE(1.E0)),.T.,
.UNSPECIFIED.);
#482=COMPOSITE_CURVE_SEGMENT(.CONTINUOUS.,.T.,#481);
#483=COMPOSITE_CURVE('',(#464,#470,#476,#482),.F.);
#484=(LENGTH_UNIT()NAMED_UNIT(*)SI_UNIT(.MILLI.,.METRE.));
#486=(NAMED_UNIT(*)PLANE_ANGLE_UNIT()SI_UNIT($,.RADIAN.));
#489=(NAMED_UNIT(*)SI_UNIT($,.STERADIAN.)SOLID_ANGLE_UNIT());
#491=(GEOMETRIC_REPRESENTATION_CONTEXT(3)GLOBAL_UNCERTAINTY_ASSIGNED_CONTEXT((
#490))GLOBAL_UNIT_ASSIGNED_CONTEXT((#484,#488,#489))REPRESENTATION_CONTEXT
('ID1','3'));
#492=ADVANCED_BREP_SHAPE_REPRESENTATION('',(#282),#491);
#493=GEOMETRICALLY_BOUNDED_SURFACE_SHAPE_REPRESENTATION('',(#312),#491);
#494=SHAPE_REPRESENTATION('',(#286),#491);
#503=PRODUCT_DEFINITION('design','',#502,#499);
#504=PRODUCT_DEFINITION_SHAPE('','SHAPE FOR VCNL36825T.',#503);
#505=SHAPE_DEFINITION_REPRESENTATION(#504,#494);
ENDSEC;
END-ISO-10303-21;
