#VRML V2.0 utf8
Shape {
  appearance Appearance { material Material { diffuseColor 0.68 0.70 0.72 specularColor 0.35 0.35 0.35 shininess 0.55 } }
  geometry IndexedFaceSet {
    solid FALSE
    coord Coordinate { point [
      -0.13779527 0.1476378 0,
      -0.13779527 0.24606299 0,
      -0.29527559 0.24606299 0,
      -0.29527559 0.1476378 0,
      -0.13779527 0.24606299 0,
      -0.13779527 0.24606299 0.078740155,
      -0.13779527 0.1476378 0.078740155,
      -0.13779527 0.1476378 0,
      -0.29527559 0.1476378 0,
      -0.29527559 0.1476378 0.078740155,
      -0.13779527 0.1476378 0,
      -0.13779527 0.1476378 0.078740155,
      -0.29527559 0.24606299 0.078740155,
      -0.29527559 0.1476378 0.078740155,
      -0.13779527 0.1476378 0.078740155,
      -0.13779527 0.24606299 0.078740155,
      -0.29527559 0.24606299 0,
      -0.29527559 0.24606299 0.078740155,
      -0.13779527 0.24606299 0.078740155,
      -0.13779527 0.24606299 0,
      -0.29527559 0.1476378 0,
      -0.29527559 0.1476378 0.078740155,
      -0.29527559 0.24606299 0.078740155,
      -0.29527559 0.24606299 0,
      -0.29527559 0.049212601 0,
      -0.29527559 -0.049212601 0,
      -0.18700788 -0.049212601 0,
      -0.17846219 -0.048464947 0,
      -0.17017617 -0.046244715 0,
      -0.16240157 -0.04261936 0,
      -0.15537463 -0.037699037 0,
      -0.14930884 -0.031633248 0,
      -0.14438851 -0.0246063 0,
      -0.14076316 -0.0168317 0,
      -0.13854293 -0.0085456781 0,
      -0.13779527 -3.0134027e-18 0,
      -0.13854293 0.0085456781 0,
      -0.14076316 0.0168317 0,
      -0.14438851 0.0246063 0,
      -0.14930884 0.031633248 0,
      -0.15537463 0.037699037 0,
      -0.16240157 0.04261936 0,
      -0.17017617 0.046244715 0,
      -0.17846219 0.048464947 0,
      -0.18700788 0.049212601 0,
      -0.29527559 -0.049212601 0,
      -0.29527559 -0.049212601 0.078740155,
      -0.29527559 0.049212601 0.078740155,
      -0.29527559 0.049212601 0,
      -0.29527559 0.049212601 0,
      -0.29527559 0.049212601 0.078740155,
      -0.18700788 0.049212601 0.078740155,
      -0.18700788 0.049212601 0,
      -0.18700788 0.049212601 0,
      -0.18700788 0.049212601 0.078740155,
      -0.18700788 -0.049212601 0.078740155,
      -0.17846219 -0.048464947 0.078740155,
      -0.17017617 -0.046244715 0.078740155,
      -0.16240157 -0.04261936 0.078740155,
      -0.15537463 -0.037699037 0.078740155,
      -0.14930884 -0.031633248 0.078740155,
      -0.14438851 -0.0246063 0.078740155,
      -0.14076316 -0.0168317 0.078740155,
      -0.13854293 -0.0085456781 0.078740155,
      -0.13779527 -3.0134027e-18 0.078740155,
      -0.13854293 0.0085456781 0.078740155,
      -0.14076316 0.0168317 0.078740155,
      -0.14438851 0.0246063 0.078740155,
      -0.14930884 0.031633248 0.078740155,
      -0.15537463 0.037699037 0.078740155,
      -0.16240157 0.04261936 0.078740155,
      -0.17017617 0.046244715 0.078740155,
      -0.17846219 0.048464947 0.078740155,
      -0.18700788 -0.049212601 0,
      -0.17846219 -0.048464947 0,
      -0.17017617 -0.046244715 0,
      -0.16240157 -0.04261936 0,
      -0.15537463 -0.037699037 0,
      -0.14930884 -0.031633248 0,
      -0.14438851 -0.0246063 0,
      -0.14076316 -0.0168317 0,
      -0.13854293 -0.0085456781 0,
      -0.13779527 -3.0134027e-18 0,
      -0.13854293 0.0085456781 0,
      -0.14076316 0.0168317 0,
      -0.14438851 0.0246063 0,
      -0.14930884 0.031633248 0,
      -0.15537463 0.037699037 0,
      -0.16240157 0.04261936 0,
      -0.17017617 0.046244715 0,
      -0.17846219 0.048464947 0,
      -0.18700788 -0.049212601 0,
      -0.18700788 -0.049212601 0.078740155,
      -0.29527559 -0.049212601 0.078740155,
      -0.29527559 -0.049212601 0,
      -0.29527559 -0.049212601 0.078740155,
      -0.18700788 -0.049212601 0.078740155,
      -0.17846219 -0.048464947 0.078740155,
      -0.17017617 -0.046244715 0.078740155,
      -0.16240157 -0.04261936 0.078740155,
      -0.15537463 -0.037699037 0.078740155,
      -0.14930884 -0.031633248 0.078740155,
      -0.14438851 -0.0246063 0.078740155,
      -0.14076316 -0.0168317 0.078740155,
      -0.13854293 -0.0085456781 0.078740155,
      -0.13779527 -3.0134027e-18 0.078740155,
      -0.13854293 0.0085456781 0.078740155,
      -0.14076316 0.0168317 0.078740155,
      -0.14438851 0.0246063 0.078740155,
      -0.14930884 0.031633248 0.078740155,
      -0.15537463 0.037699037 0.078740155,
      -0.16240157 0.04261936 0.078740155,
      -0.17017617 0.046244715 0.078740155,
      -0.17846219 0.048464947 0.078740155,
      -0.18700788 0.049212601 0.078740155,
      -0.29527559 0.049212601 0.078740155,
      -0.29527559 -0.1476378 0,
      -0.29527559 -0.24606299 0,
      -0.18700788 -0.24606299 0,
      -0.17846219 -0.24531534 0,
      -0.17017617 -0.24309511 0,
      -0.16240157 -0.23946975 0,
      -0.15537463 -0.23454944 0,
      -0.14930884 -0.22848363 0,
      -0.14438851 -0.22145668 0,
      -0.14076316 -0.21368209 0,
      -0.13854293 -0.20539607 0,
      -0.13779527 -0.1968504 0,
      -0.13854293 -0.18830472 0,
      -0.14076316 -0.1800187 0,
      -0.14438851 -0.1722441 0,
      -0.14930884 -0.16521714 0,
      -0.15537463 -0.15915135 0,
      -0.16240157 -0.15423103 0,
      -0.17017617 -0.15060568 0,
      -0.17846219 -0.14838544 0,
      -0.18700788 -0.1476378 0,
      -0.29527559 -0.24606299 0,
      -0.29527559 -0.24606299 0.078740155,
      -0.29527559 -0.1476378 0.078740155,
      -0.29527559 -0.1476378 0,
      -0.29527559 -0.1476378 0,
      -0.29527559 -0.1476378 0.078740155,
      -0.18700788 -0.1476378 0.078740155,
      -0.18700788 -0.1476378 0,
      -0.18700788 -0.1476378 0,
      -0.18700788 -0.1476378 0.078740155,
      -0.18700788 -0.24606299 0.078740155,
      -0.17846219 -0.24531534 0.078740155,
      -0.17017617 -0.24309511 0.078740155,
      -0.16240157 -0.23946975 0.078740155,
      -0.15537463 -0.23454944 0.078740155,
      -0.14930884 -0.22848363 0.078740155,
      -0.14438851 -0.22145668 0.078740155,
      -0.14076316 -0.21368209 0.078740155,
      -0.13854293 -0.20539607 0.078740155,
      -0.13779527 -0.1968504 0.078740155,
      -0.13854293 -0.18830472 0.078740155,
      -0.14076316 -0.1800187 0.078740155,
      -0.14438851 -0.1722441 0.078740155,
      -0.14930884 -0.16521714 0.078740155,
      -0.15537463 -0.15915135 0.078740155,
      -0.16240157 -0.15423103 0.078740155,
      -0.17017617 -0.15060568 0.078740155,
      -0.17846219 -0.14838544 0.078740155,
      -0.18700788 -0.24606299 0,
      -0.17846219 -0.24531534 0,
      -0.17017617 -0.24309511 0,
      -0.16240157 -0.23946975 0,
      -0.15537463 -0.23454944 0,
      -0.14930884 -0.22848363 0,
      -0.14438851 -0.22145668 0,
      -0.14076316 -0.21368209 0,
      -0.13854293 -0.20539607 0,
      -0.13779527 -0.1968504 0,
      -0.13854293 -0.18830472 0,
      -0.14076316 -0.1800187 0,
      -0.14438851 -0.1722441 0,
      -0.14930884 -0.16521714 0,
      -0.15537463 -0.15915135 0,
      -0.16240157 -0.15423103 0,
      -0.17017617 -0.15060568 0,
      -0.17846219 -0.14838544 0,
      -0.18700788 -0.24606299 0,
      -0.18700788 -0.24606299 0.078740155,
      -0.29527559 -0.24606299 0.078740155,
      -0.29527559 -0.24606299 0,
      -0.29527559 -0.24606299 0.078740155,
      -0.18700788 -0.24606299 0.078740155,
      -0.17846219 -0.24531534 0.078740155,
      -0.17017617 -0.24309511 0.078740155,
      -0.16240157 -0.23946975 0.078740155,
      -0.15537463 -0.23454944 0.078740155,
      -0.14930884 -0.22848363 0.078740155,
      -0.14438851 -0.22145668 0.078740155,
      -0.14076316 -0.21368209 0.078740155,
      -0.13854293 -0.20539607 0.078740155,
      -0.13779527 -0.1968504 0.078740155,
      -0.13854293 -0.18830472 0.078740155,
      -0.14076316 -0.1800187 0.078740155,
      -0.14438851 -0.1722441 0.078740155,
      -0.14930884 -0.16521714 0.078740155,
      -0.15537463 -0.15915135 0.078740155,
      -0.16240157 -0.15423103 0.078740155,
      -0.17017617 -0.15060568 0.078740155,
      -0.17846219 -0.14838544 0.078740155,
      -0.18700788 -0.1476378 0.078740155,
      -0.29527559 -0.1476378 0.078740155,
      0.054133858 0.29527559 0.078740155,
      0.054133858 0.23622048 0.078740155,
      0.054133858 0.29527559 0.039370078,
      0.054133858 0.23622048 0.039370078,
      0.10334645 0.23622048 0.078740155,
      0.10334645 0.23622048 0.039370078,
      0.29527559 0.23622048 0.078740155,
      0.29527559 0.23622048 0,
      0.019685039 0.23622048 0,
      0.019685039 0.23622048 0.078740155,
      0.054133858 0.23622048 0.078740155,
      0.054133858 0.23622048 0.039370078,
      0.054133858 0.23622048 0.039370078,
      0.10334645 0.23622048 0.039370078,
      0.10334645 0.29527559 0.039370078,
      0.054133858 0.29527559 0.039370078,
      0.10334645 0.23622048 0.039370078,
      0.10334645 0.29527559 0.039370078,
      0.10334645 0.29527559 0.078740155,
      0.10334645 0.23622048 0.078740155,
      0.019685039 0.23622048 0.078740155,
      0.012848498 0.23562234 0.078740155,
      0.0062196791 0.23384616 0.078740155,
      2.7318481e-18 0.23094588 0.078740155,
      -0.0056215595 0.22700963 0.078740155,
      -0.010474191 0.22215699 0.078740155,
      -0.014410449 0.21653543 0.078740155,
      -0.017310733 0.21031576 0.078740155,
      -0.019086919 0.20368694 0.078740155,
      -0.019685039 0.1968504 0.078740155,
      -0.019086919 0.19001386 0.078740155,
      -0.017310733 0.18338503 0.078740155,
      -0.014410449 0.17716535 0.078740155,
      -0.010474191 0.1715438 0.078740155,
      -0.0056215595 0.16669117 0.078740155,
      -3.0050328e-17 0.16275491 0.078740155,
      0.0062196791 0.15985462 0.078740155,
      0.012848498 0.15807844 0.078740155,
      0.019685039 0.15748031 0.078740155,
      0.29527559 0.15748031 0.078740155,
      0.29527559 0.23622048 0.078740155,
      0.10334645 0.23622048 0.078740155,
      0.10334645 0.29527559 0.078740155,
      0.054133858 0.29527559 0.078740155,
      0.054133858 0.23622048 0.078740155,
      0.054133858 0.29527559 0.039370078,
      0.054133858 0.29527559 0.078740155,
      0.10334645 0.29527559 0.078740155,
      0.10334645 0.29527559 0.039370078,
      0.29527559 0.23622048 0,
      0.29527559 0.23622048 0.078740155,
      0.29527559 0.15748031 0.078740155,
      0.29527559 0.15748031 0,
      0.29527559 0.23622048 0,
      0.019685039 0.23622048 0,
      0.012848498 0.23562234 0,
      0.0062196791 0.23384616 0,
      2.7318481e-18 0.23094588 0,
      -0.0056215595 0.22700963 0,
      -0.010474191 0.22215699 0,
      -0.014410449 0.21653543 0,
      -0.017310733 0.21031576 0,
      -0.019086919 0.20368694 0,
      -0.019685039 0.1968504 0,
      -0.019086919 0.19001386 0,
      -0.017310733 0.18338503 0,
      -0.014410449 0.17716535 0,
      -0.010474191 0.1715438 0,
      -0.0056215595 0.16669117 0,
      -3.0050328e-17 0.16275491 0,
      0.0062196791 0.15985462 0,
      0.012848498 0.15807844 0,
      0.019685039 0.15748031 0,
      0.29527559 0.15748031 0,
      0.019685039 0.15748031 0,
      0.019685039 0.15748031 0.078740155,
      0.019685039 0.23622048 0.078740155,
      0.012848498 0.23562234 0.078740155,
      0.0062196791 0.23384616 0.078740155,
      2.7318481e-18 0.23094588 0.078740155,
      -0.0056215595 0.22700963 0.078740155,
      -0.010474191 0.22215699 0.078740155,
      -0.014410449 0.21653543 0.078740155,
      -0.017310733 0.21031576 0.078740155,
      -0.019086919 0.20368694 0.078740155,
      -0.019685039 0.1968504 0.078740155,
      -0.019086919 0.19001386 0.078740155,
      -0.017310733 0.18338503 0.078740155,
      -0.014410449 0.17716535 0.078740155,
      -0.010474191 0.1715438 0.078740155,
      -0.0056215595 0.16669117 0.078740155,
      -3.0050328e-17 0.16275491 0.078740155,
      0.0062196791 0.15985462 0.078740155,
      0.012848498 0.15807844 0.078740155,
      0.019685039 0.23622048 0,
      0.012848498 0.23562234 0,
      0.0062196791 0.23384616 0,
      2.7318481e-18 0.23094588 0,
      -0.0056215595 0.22700963 0,
      -0.010474191 0.22215699 0,
      -0.014410449 0.21653543 0,
      -0.017310733 0.21031576 0,
      -0.019086919 0.20368694 0,
      -0.019685039 0.1968504 0,
      -0.019086919 0.19001386 0,
      -0.017310733 0.18338503 0,
      -0.014410449 0.17716535 0,
      -0.010474191 0.1715438 0,
      -0.0056215595 0.16669117 0,
      -3.0050328e-17 0.16275491 0,
      0.0062196791 0.15985462 0,
      0.012848498 0.15807844 0,
      0.29527559 0.15748031 0,
      0.29527559 0.15748031 0.078740155,
      0.019685039 0.15748031 0.078740155,
      0.019685039 0.15748031 0,
      0.29527559 0.039370078 0,
      0.019685039 0.039370078 0,
      0.012848498 0.03877196 0,
      0.0062196791 0.036995772 0,
      2.7318481e-18 0.03409549 0,
      -0.0056215595 0.030159231 0,
      -0.010474191 0.0253066 0,
      -0.014410449 0.019685039 0,
      -0.017310733 0.01346536 0,
      -0.019086919 0.0068365428 0,
      -0.019685039 2.410722e-18 0,
      -0.019086919 -0.0068365428 0,
      -0.017310733 -0.01346536 0,
      -0.014410449 -0.019685039 0,
      -0.010474191 -0.0253066 0,
      -0.0056215595 -0.030159231 0,
      -3.0050328e-17 -0.03409549 0,
      0.0062196791 -0.036995772 0,
      0.012848498 -0.03877196 0,
      0.019685039 -0.039370078 0,
      0.29527559 -0.039370078 0,
      0.019685039 0.039370078 0,
      0.019685039 0.039370078 0.078740155,
      0.29527559 0.039370078 0.078740155,
      0.29527559 0.039370078 0,
      0.29527559 0.039370078 0,
      0.29527559 0.039370078 0.078740155,
      0.29527559 -0.039370078 0.078740155,
      0.29527559 -0.039370078 0,
      0.29527559 -0.039370078 0,
      0.29527559 -0.039370078 0.078740155,
      0.019685039 -0.039370078 0.078740155,
      0.019685039 -0.039370078 0,
      0.019685039 -0.039370078 0,
      0.019685039 -0.039370078 0.078740155,
      0.019685039 0.039370078 0.078740155,
      0.012848498 0.03877196 0.078740155,
      0.0062196791 0.036995772 0.078740155,
      2.7318481e-18 0.03409549 0.078740155,
      -0.0056215595 0.030159231 0.078740155,
      -0.010474191 0.0253066 0.078740155,
      -0.014410449 0.019685039 0.078740155,
      -0.017310733 0.01346536 0.078740155,
      -0.019086919 0.0068365428 0.078740155,
      -0.019685039 2.410722e-18 0.078740155,
      -0.019086919 -0.0068365428 0.078740155,
      -0.017310733 -0.01346536 0.078740155,
      -0.014410449 -0.019685039 0.078740155,
      -0.010474191 -0.0253066 0.078740155,
      -0.0056215595 -0.030159231 0.078740155,
      -3.0050328e-17 -0.03409549 0.078740155,
      0.0062196791 -0.036995772 0.078740155,
      0.012848498 -0.03877196 0.078740155,
      0.019685039 0.039370078 0,
      0.012848498 0.03877196 0,
      0.0062196791 0.036995772 0,
      2.7318481e-18 0.03409549 0,
      -0.0056215595 0.030159231 0,
      -0.010474191 0.0253066 0,
      -0.014410449 0.019685039 0,
      -0.017310733 0.01346536 0,
      -0.019086919 0.0068365428 0,
      -0.019685039 2.410722e-18 0,
      -0.019086919 -0.0068365428 0,
      -0.017310733 -0.01346536 0,
      -0.014410449 -0.019685039 0,
      -0.010474191 -0.0253066 0,
      -0.0056215595 -0.030159231 0,
      -3.0050328e-17 -0.03409549 0,
      0.0062196791 -0.036995772 0,
      0.012848498 -0.03877196 0,
      0.019685039 0.039370078 0.078740155,
      0.012848498 0.03877196 0.078740155,
      0.0062196791 0.036995772 0.078740155,
      2.7318481e-18 0.03409549 0.078740155,
      -0.0056215595 0.030159231 0.078740155,
      -0.010474191 0.0253066 0.078740155,
      -0.014410449 0.019685039 0.078740155,
      -0.017310733 0.01346536 0.078740155,
      -0.019086919 0.0068365428 0.078740155,
      -0.019685039 2.410722e-18 0.078740155,
      -0.019086919 -0.0068365428 0.078740155,
      -0.017310733 -0.01346536 0.078740155,
      -0.014410449 -0.019685039 0.078740155,
      -0.010474191 -0.0253066 0.078740155,
      -0.0056215595 -0.030159231 0.078740155,
      -3.0050328e-17 -0.03409549 0.078740155,
      0.0062196791 -0.036995772 0.078740155,
      0.012848498 -0.03877196 0.078740155,
      0.019685039 -0.039370078 0.078740155,
      0.29527559 -0.039370078 0.078740155,
      0.29527559 0.039370078 0.078740155,
      0.054133858 -0.29527559 0.039370078,
      0.054133858 -0.23622048 0.039370078,
      0.054133858 -0.23622048 0.078740155,
      0.054133858 -0.29527559 0.078740155,
      0.10334645 -0.29527559 0.039370078,
      0.054133858 -0.29527559 0.039370078,
      0.054133858 -0.23622048 0.039370078,
      0.10334645 -0.23622048 0.039370078,
      0.10334645 -0.23622048 0.039370078,
      0.10334645 -0.29527559 0.039370078,
      0.10334645 -0.29527559 0.078740155,
      0.10334645 -0.23622048 0.078740155,
      0.10334645 -0.29527559 0.039370078,
      0.054133858 -0.29527559 0.039370078,
      0.054133858 -0.29527559 0.078740155,
      0.10334645 -0.29527559 0.078740155,
      0.29527559 -0.23622048 0.078740155,
      0.29527559 -0.15748031 0.078740155,
      0.019685039 -0.15748031 0.078740155,
      0.012848498 -0.15807844 0.078740155,
      0.0062196791 -0.15985462 0.078740155,
      2.7318481e-18 -0.16275491 0.078740155,
      -0.0056215595 -0.16669117 0.078740155,
      -0.010474191 -0.1715438 0.078740155,
      -0.014410449 -0.17716535 0.078740155,
      -0.017310733 -0.18338503 0.078740155,
      -0.019086919 -0.19001386 0.078740155,
      -0.019685039 -0.1968504 0.078740155,
      -0.019086919 -0.20368694 0.078740155,
      -0.017310733 -0.21031576 0.078740155,
      -0.014410449 -0.21653543 0.078740155,
      -0.010474191 -0.22215699 0.078740155,
      -0.0056215595 -0.22700963 0.078740155,
      -3.0050328e-17 -0.23094588 0.078740155,
      0.0062196791 -0.23384616 0.078740155,
      0.012848498 -0.23562234 0.078740155,
      0.019685039 -0.23622048 0.078740155,
      0.054133858 -0.23622048 0.078740155,
      0.054133858 -0.29527559 0.078740155,
      0.10334645 -0.29527559 0.078740155,
      0.10334645 -0.23622048 0.078740155,
      0.054133858 -0.23622048 0.078740155,
      0.054133858 -0.23622048 0.039370078,
      0.019685039 -0.23622048 0.078740155,
      0.019685039 -0.23622048 0,
      0.29527559 -0.23622048 0,
      0.29527559 -0.23622048 0.078740155,
      0.10334645 -0.23622048 0.078740155,
      0.10334645 -0.23622048 0.039370078,
      0.29527559 -0.15748031 0,
      0.29527559 -0.15748031 0.078740155,
      0.29527559 -0.23622048 0.078740155,
      0.29527559 -0.23622048 0,
      0.29527559 -0.15748031 0,
      0.019685039 -0.15748031 0,
      0.012848498 -0.15807844 0,
      0.0062196791 -0.15985462 0,
      2.7318481e-18 -0.16275491 0,
      -0.0056215595 -0.16669117 0,
      -0.010474191 -0.1715438 0,
      -0.014410449 -0.17716535 0,
      -0.017310733 -0.18338503 0,
      -0.019086919 -0.19001386 0,
      -0.019685039 -0.1968504 0,
      -0.019086919 -0.20368694 0,
      -0.017310733 -0.21031576 0,
      -0.014410449 -0.21653543 0,
      -0.010474191 -0.22215699 0,
      -0.0056215595 -0.22700963 0,
      -3.0050328e-17 -0.23094588 0,
      0.0062196791 -0.23384616 0,
      0.012848498 -0.23562234 0,
      0.019685039 -0.23622048 0,
      0.29527559 -0.23622048 0,
      0.019685039 -0.15748031 0,
      0.019685039 -0.15748031 0.078740155,
      0.29527559 -0.15748031 0.078740155,
      0.29527559 -0.15748031 0,
      0.019685039 -0.23622048 0,
      0.019685039 -0.23622048 0.078740155,
      0.019685039 -0.15748031 0.078740155,
      0.012848498 -0.15807844 0.078740155,
      0.0062196791 -0.15985462 0.078740155,
      2.7318481e-18 -0.16275491 0.078740155,
      -0.0056215595 -0.16669117 0.078740155,
      -0.010474191 -0.1715438 0.078740155,
      -0.014410449 -0.17716535 0.078740155,
      -0.017310733 -0.18338503 0.078740155,
      -0.019086919 -0.19001386 0.078740155,
      -0.019685039 -0.1968504 0.078740155,
      -0.019086919 -0.20368694 0.078740155,
      -0.017310733 -0.21031576 0.078740155,
      -0.014410449 -0.21653543 0.078740155,
      -0.010474191 -0.22215699 0.078740155,
      -0.0056215595 -0.22700963 0.078740155,
      -3.0050328e-17 -0.23094588 0.078740155,
      0.0062196791 -0.23384616 0.078740155,
      0.012848498 -0.23562234 0.078740155,
      0.019685039 -0.15748031 0,
      0.012848498 -0.15807844 0,
      0.0062196791 -0.15985462 0,
      2.7318481e-18 -0.16275491 0,
      -0.0056215595 -0.16669117 0,
      -0.010474191 -0.1715438 0,
      -0.014410449 -0.17716535 0,
      -0.017310733 -0.18338503 0,
      -0.019086919 -0.19001386 0,
      -0.019685039 -0.1968504 0,
      -0.019086919 -0.20368694 0,
      -0.017310733 -0.21031576 0,
      -0.014410449 -0.21653543 0,
      -0.010474191 -0.22215699 0,
      -0.0056215595 -0.22700963 0,
      -3.0050328e-17 -0.23094588 0,
      0.0062196791 -0.23384616 0,
      0.012848498 -0.23562234 0,
      -0.29527559 0.29527559 0.019685039,
      -0.29527559 0.24606299 0.019685039,
      -0.13779527 0.24606299 0.019685039,
      -0.13779527 0.1476378 0.019685039,
      -0.29527559 0.1476378 0.019685039,
      -0.29527559 0.049212601 0.019685039,
      -0.18700788 0.049212601 0.019685039,
      -0.18700788 -0.049212601 0.019685039,
      -0.17846219 -0.048464947 0.019685039,
      -0.17017617 -0.046244715 0.019685039,
      -0.16240157 -0.04261936 0.019685039,
      -0.15537463 -0.037699037 0.019685039,
      -0.14930884 -0.031633248 0.019685039,
      -0.14438851 -0.0246063 0.019685039,
      -0.14076316 -0.0168317 0.019685039,
      -0.13854293 -0.0085456781 0.019685039,
      -0.13779527 -3.0134027e-18 0.019685039,
      -0.13854293 0.0085456781 0.019685039,
      -0.14076316 0.0168317 0.019685039,
      -0.14438851 0.0246063 0.019685039,
      -0.14930884 0.031633248 0.019685039,
      -0.15537463 0.037699037 0.019685039,
      -0.16240157 0.04261936 0.019685039,
      -0.17017617 0.046244715 0.019685039,
      -0.17846219 0.048464947 0.019685039,
      -0.29527559 -0.049212601 0.019685039,
      -0.29527559 -0.1476378 0.019685039,
      -0.18700788 -0.1476378 0.019685039,
      -0.18700788 -0.24606299 0.019685039,
      -0.17846219 -0.24531534 0.019685039,
      -0.17017617 -0.24309511 0.019685039,
      -0.16240157 -0.23946975 0.019685039,
      -0.15537463 -0.23454944 0.019685039,
      -0.14930884 -0.22848363 0.019685039,
      -0.14438851 -0.22145668 0.019685039,
      -0.14076316 -0.21368209 0.019685039,
      -0.13854293 -0.20539607 0.019685039,
      -0.13779527 -0.1968504 0.019685039,
      -0.13854293 -0.18830472 0.019685039,
      -0.14076316 -0.1800187 0.019685039,
      -0.14438851 -0.1722441 0.019685039,
      -0.14930884 -0.16521714 0.019685039,
      -0.15537463 -0.15915135 0.019685039,
      -0.16240157 -0.15423103 0.019685039,
      -0.17017617 -0.15060568 0.019685039,
      -0.17846219 -0.14838544 0.019685039,
      -0.29527559 -0.24606299 0.019685039,
      -0.29527559 -0.29527559 0.019685039,
      0.29527559 -0.29527559 0.019685039,
      0.29527559 -0.23622048 0.019685039,
      0.019685039 -0.23622048 0.019685039,
      0.019685039 -0.15748031 0.019685039,
      0.012848498 -0.15807844 0.019685039,
      0.0062196791 -0.15985462 0.019685039,
      2.7318481e-18 -0.16275491 0.019685039,
      -0.0056215595 -0.16669117 0.019685039,
      -0.010474191 -0.1715438 0.019685039,
      -0.014410449 -0.17716535 0.019685039,
      -0.017310733 -0.18338503 0.019685039,
      -0.019086919 -0.19001386 0.019685039,
      -0.019685039 -0.1968504 0.019685039,
      -0.019086919 -0.20368694 0.019685039,
      -0.017310733 -0.21031576 0.019685039,
      -0.014410449 -0.21653543 0.019685039,
      -0.010474191 -0.22215699 0.019685039,
      -0.0056215595 -0.22700963 0.019685039,
      -3.0050328e-17 -0.23094588 0.019685039,
      0.0062196791 -0.23384616 0.019685039,
      0.012848498 -0.23562234 0.019685039,
      0.29527559 -0.15748031 0.019685039,
      0.29527559 -0.039370078 0.019685039,
      0.019685039 -0.039370078 0.019685039,
      0.019685039 0.039370078 0.019685039,
      0.012848498 0.03877196 0.019685039,
      0.0062196791 0.036995772 0.019685039,
      2.7318481e-18 0.03409549 0.019685039,
      -0.0056215595 0.030159231 0.019685039,
      -0.010474191 0.0253066 0.019685039,
      -0.014410449 0.019685039 0.019685039,
      -0.017310733 0.01346536 0.019685039,
      -0.019086919 0.0068365428 0.019685039,
      -0.019685039 2.410722e-18 0.019685039,
      -0.019086919 -0.0068365428 0.019685039,
      -0.017310733 -0.01346536 0.019685039,
      -0.014410449 -0.019685039 0.019685039,
      -0.010474191 -0.0253066 0.019685039,
      -0.0056215595 -0.030159231 0.019685039,
      -3.0050328e-17 -0.03409549 0.019685039,
      0.0062196791 -0.036995772 0.019685039,
      0.012848498 -0.03877196 0.019685039,
      0.29527559 0.039370078 0.019685039,
      0.29527559 0.15748031 0.019685039,
      0.019685039 0.15748031 0.019685039,
      0.019685039 0.23622048 0.019685039,
      0.012848498 0.23562234 0.019685039,
      0.0062196791 0.23384616 0.019685039,
      2.7318481e-18 0.23094588 0.019685039,
      -0.0056215595 0.22700963 0.019685039,
      -0.010474191 0.22215699 0.019685039,
      -0.014410449 0.21653543 0.019685039,
      -0.017310733 0.21031576 0.019685039,
      -0.019086919 0.20368694 0.019685039,
      -0.019685039 0.1968504 0.019685039,
      -0.019086919 0.19001386 0.019685039,
      -0.017310733 0.18338503 0.019685039,
      -0.014410449 0.17716535 0.019685039,
      -0.010474191 0.1715438 0.019685039,
      -0.0056215595 0.16669117 0.019685039,
      -3.0050328e-17 0.16275491 0.019685039,
      0.0062196791 0.15985462 0.019685039,
      0.012848498 0.15807844 0.019685039,
      0.29527559 0.23622048 0.019685039,
      0.29527559 0.29527559 0.019685039,
      -0.29527559 0.24606299 0.019685039,
      -0.29527559 0.24606299 0.07874016,
      -0.29527559 0.1476378 0.07874016,
      -0.29527559 0.1476378 0.019685039,
      -0.29527559 0.049212601 0.019685039,
      -0.29527559 0.049212601 0.07874016,
      -0.29527559 -0.049212601 0.07874016,
      -0.29527559 -0.049212601 0.019685039,
      -0.29527559 -0.1476378 0.019685039,
      -0.29527559 -0.1476378 0.07874016,
      -0.29527559 -0.24606299 0.07874016,
      -0.29527559 -0.24606299 0.019685039,
      -0.29527559 -0.29527559 0.019685039,
      -0.29527559 -0.29527559 0.39370079,
      -0.29527559 0.29527559 0.39370079,
      -0.29527559 0.29527559 0.019685039,
      -0.29527559 0.29527559 0.019685039,
      -0.29527559 0.29527559 0.39370079,
      0.29527559 0.29527559 0.39370079,
      0.29527559 0.29527559 0.019685039,
      0.054133858 0.29527559 0.039370078,
      0.054133858 0.29527559 0.07874016,
      0.10334645 0.29527559 0.039370078,
      0.10334645 0.29527559 0.07874016,
      0.29527559 -0.23622048 0.019685039,
      0.29527559 -0.23622048 0.07874016,
      0.29527559 -0.15748031 0.07874016,
      0.29527559 -0.15748031 0.019685039,
      0.29527559 -0.039370078 0.019685039,
      0.29527559 -0.039370078 0.07874016,
      0.29527559 0.039370078 0.07874016,
      0.29527559 0.039370078 0.019685039,
      0.29527559 0.15748031 0.019685039,
      0.29527559 0.15748031 0.07874016,
      0.29527559 0.23622048 0.07874016,
      0.29527559 0.23622048 0.019685039,
      0.29527559 0.29527559 0.019685039,
      0.29527559 0.29527559 0.39370079,
      0.29527559 -0.29527559 0.39370079,
      0.29527559 -0.29527559 0.019685039,
      0.29527559 -0.29527559 0.019685039,
      0.29527559 -0.29527559 0.39370079,
      -0.29527559 -0.29527559 0.39370079,
      -0.29527559 -0.29527559 0.019685039,
      0.10334645 -0.29527559 0.039370078,
      0.10334645 -0.29527559 0.07874016,
      0.054133858 -0.29527559 0.039370078,
      0.054133858 -0.29527559 0.07874016,
      -0.29527559 -0.29527559 0.39370079,
      0.29527559 -0.29527559 0.39370079,
      0.29527559 0.29527559 0.39370079,
      -0.29527559 0.29527559 0.39370079,
      0.29527559 -0.23622048 0.07874016,
      0.29527559 -0.15748031 0.07874016,
      0.019685039 -0.15748031 0.07874016,
      0.012848498 -0.15807844 0.07874016,
      0.0062196791 -0.15985462 0.07874016,
      2.7318481e-18 -0.16275491 0.07874016,
      -0.0056215595 -0.16669117 0.07874016,
      -0.010474191 -0.1715438 0.07874016,
      -0.014410449 -0.17716535 0.07874016,
      -0.017310733 -0.18338503 0.07874016,
      -0.019086919 -0.19001386 0.07874016,
      -0.019685039 -0.1968504 0.07874016,
      -0.019086919 -0.20368694 0.07874016,
      -0.017310733 -0.21031576 0.07874016,
      -0.014410449 -0.21653543 0.07874016,
      -0.010474191 -0.22215699 0.07874016,
      -0.0056215595 -0.22700963 0.07874016,
      -3.0050328e-17 -0.23094588 0.07874016,
      0.0062196791 -0.23384616 0.07874016,
      0.012848498 -0.23562234 0.07874016,
      0.019685039 -0.23622048 0.07874016,
      0.054133858 -0.23622048 0.07874016,
      0.054133858 -0.29527559 0.07874016,
      0.10334645 -0.29527559 0.07874016,
      0.10334645 -0.23622048 0.07874016,
      0.29527559 -0.15748031 0.019685039,
      0.019685039 -0.15748031 0.019685039,
      0.019685039 -0.15748031 0.07874016,
      0.29527559 -0.15748031 0.07874016,
      0.019685039 -0.15748031 0.019685039,
      0.012848498 -0.15807844 0.019685039,
      0.0062196791 -0.15985462 0.019685039,
      2.7318481e-18 -0.16275491 0.019685039,
      -0.0056215595 -0.16669117 0.019685039,
      -0.010474191 -0.1715438 0.019685039,
      -0.014410449 -0.17716535 0.019685039,
      -0.017310733 -0.18338503 0.019685039,
      -0.019086919 -0.19001386 0.019685039,
      -0.019685039 -0.1968504 0.019685039,
      -0.019086919 -0.20368694 0.019685039,
      -0.017310733 -0.21031576 0.019685039,
      -0.014410449 -0.21653543 0.019685039,
      -0.010474191 -0.22215699 0.019685039,
      -0.0056215595 -0.22700963 0.019685039,
      -3.0050328e-17 -0.23094588 0.019685039,
      0.0062196791 -0.23384616 0.019685039,
      0.012848498 -0.23562234 0.019685039,
      0.019685039 -0.23622048 0.019685039,
      0.019685039 -0.23622048 0.07874016,
      0.019685039 -0.15748031 0.07874016,
      0.012848498 -0.15807844 0.07874016,
      0.0062196791 -0.15985462 0.07874016,
      2.7318481e-18 -0.16275491 0.07874016,
      -0.0056215595 -0.16669117 0.07874016,
      -0.010474191 -0.1715438 0.07874016,
      -0.014410449 -0.17716535 0.07874016,
      -0.017310733 -0.18338503 0.07874016,
      -0.019086919 -0.19001386 0.07874016,
      -0.019685039 -0.1968504 0.07874016,
      -0.019086919 -0.20368694 0.07874016,
      -0.017310733 -0.21031576 0.07874016,
      -0.014410449 -0.21653543 0.07874016,
      -0.010474191 -0.22215699 0.07874016,
      -0.0056215595 -0.22700963 0.07874016,
      -3.0050328e-17 -0.23094588 0.07874016,
      0.0062196791 -0.23384616 0.07874016,
      0.012848498 -0.23562234 0.07874016,
      0.29527559 -0.23622048 0.019685039,
      0.019685039 -0.23622048 0.019685039,
      0.29527559 -0.23622048 0.07874016,
      0.10334645 -0.23622048 0.07874016,
      0.10334645 -0.23622048 0.039370078,
      0.054133858 -0.23622048 0.039370078,
      0.054133858 -0.23622048 0.07874016,
      0.019685039 -0.23622048 0.07874016,
      0.10334645 -0.23622048 0.07874016,
      0.10334645 -0.29527559 0.07874016,
      0.10334645 -0.23622048 0.039370078,
      0.10334645 -0.29527559 0.039370078,
      0.054133858 -0.29527559 0.039370078,
      0.10334645 -0.29527559 0.039370078,
      0.054133858 -0.23622048 0.039370078,
      0.10334645 -0.23622048 0.039370078,
      0.054133858 -0.29527559 0.039370078,
      0.054133858 -0.23622048 0.039370078,
      0.054133858 -0.23622048 0.07874016,
      0.054133858 -0.29527559 0.07874016,
      0.29527559 0.23622048 0.019685039,
      0.019685039 0.23622048 0.019685039,
      0.019685039 0.23622048 0.07874016,
      0.054133858 0.23622048 0.07874016,
      0.054133858 0.23622048 0.039370078,
      0.10334645 0.23622048 0.039370078,
      0.10334645 0.23622048 0.07874016,
      0.29527559 0.23622048 0.07874016,
      0.019685039 0.23622048 0.019685039,
      0.012848498 0.23562234 0.019685039,
      0.0062196791 0.23384616 0.019685039,
      2.7318481e-18 0.23094588 0.019685039,
      -0.0056215595 0.22700963 0.019685039,
      -0.010474191 0.22215699 0.019685039,
      -0.014410449 0.21653543 0.019685039,
      -0.017310733 0.21031576 0.019685039,
      -0.019086919 0.20368694 0.019685039,
      -0.019685039 0.1968504 0.019685039,
      -0.019086919 0.19001386 0.019685039,
      -0.017310733 0.18338503 0.019685039,
      -0.014410449 0.17716535 0.019685039,
      -0.010474191 0.1715438 0.019685039,
      -0.0056215595 0.16669117 0.019685039,
      -3.0050328e-17 0.16275491 0.019685039,
      0.0062196791 0.15985462 0.019685039,
      0.012848498 0.15807844 0.019685039,
      0.019685039 0.15748031 0.019685039,
      0.019685039 0.15748031 0.07874016,
      0.019685039 0.23622048 0.07874016,
      0.012848498 0.23562234 0.07874016,
      0.0062196791 0.23384616 0.07874016,
      2.7318481e-18 0.23094588 0.07874016,
      -0.0056215595 0.22700963 0.07874016,
      -0.010474191 0.22215699 0.07874016,
      -0.014410449 0.21653543 0.07874016,
      -0.017310733 0.21031576 0.07874016,
      -0.019086919 0.20368694 0.07874016,
      -0.019685039 0.1968504 0.07874016,
      -0.019086919 0.19001386 0.07874016,
      -0.017310733 0.18338503 0.07874016,
      -0.014410449 0.17716535 0.07874016,
      -0.010474191 0.1715438 0.07874016,
      -0.0056215595 0.16669117 0.07874016,
      -3.0050328e-17 0.16275491 0.07874016,
      0.0062196791 0.15985462 0.07874016,
      0.012848498 0.15807844 0.07874016,
      0.29527559 0.15748031 0.019685039,
      0.019685039 0.15748031 0.019685039,
      0.29527559 0.15748031 0.07874016,
      0.019685039 0.15748031 0.07874016,
      0.29527559 0.15748031 0.07874016,
      0.29527559 0.23622048 0.07874016,
      0.10334645 0.23622048 0.07874016,
      0.10334645 0.29527559 0.07874016,
      0.054133858 0.29527559 0.07874016,
      0.054133858 0.23622048 0.07874016,
      0.019685039 0.23622048 0.07874016,
      0.012848498 0.23562234 0.07874016,
      0.0062196791 0.23384616 0.07874016,
      2.7318481e-18 0.23094588 0.07874016,
      -0.0056215595 0.22700963 0.07874016,
      -0.010474191 0.22215699 0.07874016,
      -0.014410449 0.21653543 0.07874016,
      -0.017310733 0.21031576 0.07874016,
      -0.019086919 0.20368694 0.07874016,
      -0.019685039 0.1968504 0.07874016,
      -0.019086919 0.19001386 0.07874016,
      -0.017310733 0.18338503 0.07874016,
      -0.014410449 0.17716535 0.07874016,
      -0.010474191 0.1715438 0.07874016,
      -0.0056215595 0.16669117 0.07874016,
      -3.0050328e-17 0.16275491 0.07874016,
      0.0062196791 0.15985462 0.07874016,
      0.012848498 0.15807844 0.07874016,
      0.019685039 0.15748031 0.07874016,
      0.10334645 0.29527559 0.039370078,
      0.10334645 0.29527559 0.07874016,
      0.10334645 0.23622048 0.07874016,
      0.10334645 0.23622048 0.039370078,
      0.054133858 0.29527559 0.039370078,
      0.054133858 0.23622048 0.039370078,
      0.10334645 0.23622048 0.039370078,
      0.10334645 0.29527559 0.039370078,
      0.054133858 0.29527559 0.039370078,
      0.054133858 0.29527559 0.07874016,
      0.054133858 0.23622048 0.039370078,
      0.054133858 0.23622048 0.07874016,
      0.29527559 0.039370078 0.019685039,
      0.019685039 0.039370078 0.019685039,
      0.019685039 0.039370078 0.07874016,
      0.29527559 0.039370078 0.07874016,
      0.019685039 0.039370078 0.019685039,
      0.012848498 0.03877196 0.019685039,
      0.0062196791 0.036995772 0.019685039,
      2.7318481e-18 0.03409549 0.019685039,
      -0.0056215595 0.030159231 0.019685039,
      -0.010474191 0.0253066 0.019685039,
      -0.014410449 0.019685039 0.019685039,
      -0.017310733 0.01346536 0.019685039,
      -0.019086919 0.0068365428 0.019685039,
      -0.019685039 2.410722e-18 0.019685039,
      -0.019086919 -0.0068365428 0.019685039,
      -0.017310733 -0.01346536 0.019685039,
      -0.014410449 -0.019685039 0.019685039,
      -0.010474191 -0.0253066 0.019685039,
      -0.0056215595 -0.030159231 0.019685039,
      -3.0050328e-17 -0.03409549 0.019685039,
      0.0062196791 -0.036995772 0.019685039,
      0.012848498 -0.03877196 0.019685039,
      0.019685039 -0.039370078 0.019685039,
      0.019685039 -0.039370078 0.07874016,
      0.019685039 0.039370078 0.07874016,
      0.012848498 0.03877196 0.07874016,
      0.0062196791 0.036995772 0.07874016,
      2.7318481e-18 0.03409549 0.07874016,
      -0.0056215595 0.030159231 0.07874016,
      -0.010474191 0.0253066 0.07874016,
      -0.014410449 0.019685039 0.07874016,
      -0.017310733 0.01346536 0.07874016,
      -0.019086919 0.0068365428 0.07874016,
      -0.019685039 2.410722e-18 0.07874016,
      -0.019086919 -0.0068365428 0.07874016,
      -0.017310733 -0.01346536 0.07874016,
      -0.014410449 -0.019685039 0.07874016,
      -0.010474191 -0.0253066 0.07874016,
      -0.0056215595 -0.030159231 0.07874016,
      -3.0050328e-17 -0.03409549 0.07874016,
      0.0062196791 -0.036995772 0.07874016,
      0.012848498 -0.03877196 0.07874016,
      0.29527559 -0.039370078 0.019685039,
      0.019685039 -0.039370078 0.019685039,
      0.29527559 -0.039370078 0.07874016,
      0.019685039 -0.039370078 0.07874016,
      0.29527559 -0.039370078 0.07874016,
      0.29527559 0.039370078 0.07874016,
      0.019685039 0.039370078 0.07874016,
      0.012848498 0.03877196 0.07874016,
      0.0062196791 0.036995772 0.07874016,
      2.7318481e-18 0.03409549 0.07874016,
      -0.0056215595 0.030159231 0.07874016,
      -0.010474191 0.0253066 0.07874016,
      -0.014410449 0.019685039 0.07874016,
      -0.017310733 0.01346536 0.07874016,
      -0.019086919 0.0068365428 0.07874016,
      -0.019685039 2.410722e-18 0.07874016,
      -0.019086919 -0.0068365428 0.07874016,
      -0.017310733 -0.01346536 0.07874016,
      -0.014410449 -0.019685039 0.07874016,
      -0.010474191 -0.0253066 0.07874016,
      -0.0056215595 -0.030159231 0.07874016,
      -3.0050328e-17 -0.03409549 0.07874016,
      0.0062196791 -0.036995772 0.07874016,
      0.012848498 -0.03877196 0.07874016,
      0.019685039 -0.039370078 0.07874016,
      -0.18700788 -0.24606299 0.019685039,
      -0.29527559 -0.24606299 0.019685039,
      -0.18700788 -0.24606299 0.07874016,
      -0.29527559 -0.24606299 0.07874016,
      -0.18700788 -0.24606299 0.019685039,
      -0.17846219 -0.24531534 0.019685039,
      -0.17017617 -0.24309511 0.019685039,
      -0.16240157 -0.23946975 0.019685039,
      -0.15537463 -0.23454944 0.019685039,
      -0.14930884 -0.22848363 0.019685039,
      -0.14438851 -0.22145668 0.019685039,
      -0.14076316 -0.21368209 0.019685039,
      -0.13854293 -0.20539607 0.019685039,
      -0.13779527 -0.1968504 0.019685039,
      -0.13854293 -0.18830472 0.019685039,
      -0.14076316 -0.1800187 0.019685039,
      -0.14438851 -0.1722441 0.019685039,
      -0.14930884 -0.16521714 0.019685039,
      -0.15537463 -0.15915135 0.019685039,
      -0.16240157 -0.15423103 0.019685039,
      -0.17017617 -0.15060568 0.019685039,
      -0.17846219 -0.14838544 0.019685039,
      -0.18700788 -0.1476378 0.019685039,
      -0.18700788 -0.1476378 0.07874016,
      -0.18700788 -0.24606299 0.07874016,
      -0.17846219 -0.24531534 0.07874016,
      -0.17017617 -0.24309511 0.07874016,
      -0.16240157 -0.23946975 0.07874016,
      -0.15537463 -0.23454944 0.07874016,
      -0.14930884 -0.22848363 0.07874016,
      -0.14438851 -0.22145668 0.07874016,
      -0.14076316 -0.21368209 0.07874016,
      -0.13854293 -0.20539607 0.07874016,
      -0.13779527 -0.1968504 0.07874016,
      -0.13854293 -0.18830472 0.07874016,
      -0.14076316 -0.1800187 0.07874016,
      -0.14438851 -0.1722441 0.07874016,
      -0.14930884 -0.16521714 0.07874016,
      -0.15537463 -0.15915135 0.07874016,
      -0.16240157 -0.15423103 0.07874016,
      -0.17017617 -0.15060568 0.07874016,
      -0.17846219 -0.14838544 0.07874016,
      -0.18700788 -0.1476378 0.019685039,
      -0.29527559 -0.1476378 0.019685039,
      -0.29527559 -0.1476378 0.07874016,
      -0.18700788 -0.1476378 0.07874016,
      -0.18700788 -0.1476378 0.07874016,
      -0.29527559 -0.1476378 0.07874016,
      -0.29527559 -0.24606299 0.07874016,
      -0.18700788 -0.24606299 0.07874016,
      -0.17846219 -0.24531534 0.07874016,
      -0.17017617 -0.24309511 0.07874016,
      -0.16240157 -0.23946975 0.07874016,
      -0.15537463 -0.23454944 0.07874016,
      -0.14930884 -0.22848363 0.07874016,
      -0.14438851 -0.22145668 0.07874016,
      -0.14076316 -0.21368209 0.07874016,
      -0.13854293 -0.20539607 0.07874016,
      -0.13779527 -0.1968504 0.07874016,
      -0.13854293 -0.18830472 0.07874016,
      -0.14076316 -0.1800187 0.07874016,
      -0.14438851 -0.1722441 0.07874016,
      -0.14930884 -0.16521714 0.07874016,
      -0.15537463 -0.15915135 0.07874016,
      -0.16240157 -0.15423103 0.07874016,
      -0.17017617 -0.15060568 0.07874016,
      -0.17846219 -0.14838544 0.07874016,
      -0.18700788 -0.049212601 0.019685039,
      -0.29527559 -0.049212601 0.019685039,
      -0.18700788 -0.049212601 0.07874016,
      -0.29527559 -0.049212601 0.07874016,
      -0.18700788 -0.049212601 0.019685039,
      -0.17846219 -0.048464947 0.019685039,
      -0.17017617 -0.046244715 0.019685039,
      -0.16240157 -0.04261936 0.019685039,
      -0.15537463 -0.037699037 0.019685039,
      -0.14930884 -0.031633248 0.019685039,
      -0.14438851 -0.0246063 0.019685039,
      -0.14076316 -0.0168317 0.019685039,
      -0.13854293 -0.0085456781 0.019685039,
      -0.13779527 -3.0134027e-18 0.019685039,
      -0.13854293 0.0085456781 0.019685039,
      -0.14076316 0.0168317 0.019685039,
      -0.14438851 0.0246063 0.019685039,
      -0.14930884 0.031633248 0.019685039,
      -0.15537463 0.037699037 0.019685039,
      -0.16240157 0.04261936 0.019685039,
      -0.17017617 0.046244715 0.019685039,
      -0.17846219 0.048464947 0.019685039,
      -0.18700788 0.049212601 0.019685039,
      -0.18700788 0.049212601 0.07874016,
      -0.18700788 -0.049212601 0.07874016,
      -0.17846219 -0.048464947 0.07874016,
      -0.17017617 -0.046244715 0.07874016,
      -0.16240157 -0.04261936 0.07874016,
      -0.15537463 -0.037699037 0.07874016,
      -0.14930884 -0.031633248 0.07874016,
      -0.14438851 -0.0246063 0.07874016,
      -0.14076316 -0.0168317 0.07874016,
      -0.13854293 -0.0085456781 0.07874016,
      -0.13779527 -3.0134027e-18 0.07874016,
      -0.13854293 0.0085456781 0.07874016,
      -0.14076316 0.0168317 0.07874016,
      -0.14438851 0.0246063 0.07874016,
      -0.14930884 0.031633248 0.07874016,
      -0.15537463 0.037699037 0.07874016,
      -0.16240157 0.04261936 0.07874016,
      -0.17017617 0.046244715 0.07874016,
      -0.17846219 0.048464947 0.07874016,
      -0.18700788 0.049212601 0.019685039,
      -0.29527559 0.049212601 0.019685039,
      -0.29527559 0.049212601 0.07874016,
      -0.18700788 0.049212601 0.07874016,
      -0.18700788 0.049212601 0.07874016,
      -0.29527559 0.049212601 0.07874016,
      -0.29527559 -0.049212601 0.07874016,
      -0.18700788 -0.049212601 0.07874016,
      -0.17846219 -0.048464947 0.07874016,
      -0.17017617 -0.046244715 0.07874016,
      -0.16240157 -0.04261936 0.07874016,
      -0.15537463 -0.037699037 0.07874016,
      -0.14930884 -0.031633248 0.07874016,
      -0.14438851 -0.0246063 0.07874016,
      -0.14076316 -0.0168317 0.07874016,
      -0.13854293 -0.0085456781 0.07874016,
      -0.13779527 -3.0134027e-18 0.07874016,
      -0.13854293 0.0085456781 0.07874016,
      -0.14076316 0.0168317 0.07874016,
      -0.14438851 0.0246063 0.07874016,
      -0.14930884 0.031633248 0.07874016,
      -0.15537463 0.037699037 0.07874016,
      -0.16240157 0.04261936 0.07874016,
      -0.17017617 0.046244715 0.07874016,
      -0.17846219 0.048464947 0.07874016,
      -0.13779527 0.1476378 0.019685039,
      -0.29527559 0.1476378 0.019685039,
      -0.13779527 0.1476378 0.07874016,
      -0.29527559 0.1476378 0.07874016,
      -0.13779527 0.1476378 0.019685039,
      -0.13779527 0.24606299 0.019685039,
      -0.13779527 0.24606299 0.07874016,
      -0.13779527 0.1476378 0.07874016,
      -0.13779527 0.24606299 0.019685039,
      -0.29527559 0.24606299 0.019685039,
      -0.29527559 0.24606299 0.07874016,
      -0.13779527 0.24606299 0.07874016,
      -0.29527559 0.1476378 0.07874016,
      -0.29527559 0.24606299 0.07874016,
      -0.13779527 0.1476378 0.07874016,
      -0.13779527 0.24606299 0.07874016,
    ] }
    coordIndex [
      1, 3, 2, -1,
      1, 0, 3, -1,
      5, 6, 7, -1,
      5, 7, 4, -1,
      11, 9, 8, -1,
      11, 8, 10, -1,
      15, 12, 13, -1,
      15, 13, 14, -1,
      17, 18, 19, -1,
      17, 19, 16, -1,
      21, 22, 23, -1,
      21, 23, 20, -1,
      44, 25, 24, -1,
      44, 26, 25, -1,
      39, 27, 26, -1,
      39, 28, 27, -1,
      39, 29, 28, -1,
      39, 30, 29, -1,
      39, 31, 30, -1,
      39, 32, 31, -1,
      39, 33, 32, -1,
      39, 34, 33, -1,
      39, 35, 34, -1,
      39, 36, 35, -1,
      39, 37, 36, -1,
      39, 38, 37, -1,
      39, 41, 40, -1,
      39, 42, 41, -1,
      39, 43, 42, -1,
      39, 44, 43, -1,
      39, 26, 44, -1,
      46, 47, 48, -1,
      46, 48, 45, -1,
      50, 51, 52, -1,
      50, 52, 49, -1,
      56, 55, 73, -1,
      56, 73, 74, -1,
      57, 74, 75, -1,
      57, 56, 74, -1,
      58, 75, 76, -1,
      58, 57, 75, -1,
      59, 76, 77, -1,
      59, 58, 76, -1,
      60, 77, 78, -1,
      60, 59, 77, -1,
      61, 78, 79, -1,
      61, 60, 78, -1,
      62, 79, 80, -1,
      62, 61, 79, -1,
      63, 80, 81, -1,
      63, 62, 80, -1,
      64, 81, 82, -1,
      64, 63, 81, -1,
      65, 82, 83, -1,
      65, 64, 82, -1,
      66, 83, 84, -1,
      66, 65, 83, -1,
      67, 84, 85, -1,
      67, 66, 84, -1,
      68, 85, 86, -1,
      68, 67, 85, -1,
      69, 86, 87, -1,
      69, 68, 86, -1,
      70, 87, 88, -1,
      70, 69, 87, -1,
      71, 70, 88, -1,
      71, 88, 89, -1,
      72, 71, 89, -1,
      72, 89, 90, -1,
      54, 72, 90, -1,
      54, 90, 53, -1,
      92, 93, 94, -1,
      92, 94, 91, -1,
      114, 95, 96, -1,
      114, 115, 95, -1,
      109, 96, 97, -1,
      109, 97, 98, -1,
      109, 98, 99, -1,
      109, 99, 100, -1,
      109, 100, 101, -1,
      109, 101, 102, -1,
      109, 102, 103, -1,
      109, 103, 104, -1,
      109, 104, 105, -1,
      109, 105, 106, -1,
      109, 106, 107, -1,
      109, 107, 108, -1,
      109, 110, 111, -1,
      109, 111, 112, -1,
      109, 112, 113, -1,
      109, 113, 114, -1,
      109, 114, 96, -1,
      136, 117, 116, -1,
      136, 118, 117, -1,
      129, 128, 127, -1,
      132, 119, 118, -1,
      132, 120, 119, -1,
      132, 121, 120, -1,
      132, 122, 121, -1,
      132, 123, 122, -1,
      132, 124, 123, -1,
      132, 125, 124, -1,
      132, 126, 125, -1,
      132, 127, 126, -1,
      132, 130, 129, -1,
      132, 131, 130, -1,
      132, 134, 133, -1,
      132, 135, 134, -1,
      132, 136, 135, -1,
      132, 118, 136, -1,
      132, 129, 127, -1,
      138, 139, 140, -1,
      138, 140, 137, -1,
      142, 143, 144, -1,
      142, 144, 141, -1,
      148, 147, 165, -1,
      148, 165, 166, -1,
      149, 166, 167, -1,
      149, 148, 166, -1,
      150, 167, 168, -1,
      150, 149, 167, -1,
      151, 168, 169, -1,
      151, 150, 168, -1,
      152, 169, 170, -1,
      152, 151, 169, -1,
      153, 170, 171, -1,
      153, 152, 170, -1,
      154, 171, 172, -1,
      154, 153, 171, -1,
      155, 172, 173, -1,
      155, 154, 172, -1,
      156, 173, 174, -1,
      156, 155, 173, -1,
      157, 174, 175, -1,
      157, 156, 174, -1,
      158, 175, 176, -1,
      158, 157, 175, -1,
      159, 176, 177, -1,
      159, 158, 176, -1,
      160, 177, 178, -1,
      160, 159, 177, -1,
      161, 178, 179, -1,
      161, 160, 178, -1,
      162, 179, 180, -1,
      162, 161, 179, -1,
      163, 162, 180, -1,
      163, 180, 181, -1,
      164, 163, 181, -1,
      164, 181, 182, -1,
      146, 164, 182, -1,
      146, 182, 145, -1,
      184, 185, 186, -1,
      184, 186, 183, -1,
      206, 187, 188, -1,
      206, 207, 187, -1,
      199, 197, 198, -1,
      201, 188, 189, -1,
      201, 189, 190, -1,
      201, 190, 191, -1,
      201, 191, 192, -1,
      201, 192, 193, -1,
      201, 193, 194, -1,
      201, 194, 195, -1,
      201, 195, 196, -1,
      201, 196, 197, -1,
      201, 199, 200, -1,
      201, 202, 203, -1,
      201, 203, 204, -1,
      201, 204, 205, -1,
      201, 205, 206, -1,
      201, 206, 188, -1,
      201, 197, 199, -1,
      209, 208, 210, -1,
      209, 210, 211, -1,
      213, 214, 215, -1,
      212, 214, 213, -1,
      216, 213, 215, -1,
      219, 213, 216, -1,
      217, 218, 219, -1,
      217, 219, 216, -1,
      222, 221, 220, -1,
      222, 220, 223, -1,
      226, 224, 225, -1,
      226, 227, 224, -1,
      246, 242, 243, -1,
      246, 243, 244, -1,
      246, 244, 245, -1,
      228, 229, 230, -1,
      228, 230, 231, -1,
      228, 231, 232, -1,
      228, 232, 233, -1,
      228, 233, 234, -1,
      228, 234, 235, -1,
      228, 235, 236, -1,
      228, 236, 237, -1,
      228, 237, 238, -1,
      228, 238, 239, -1,
      228, 239, 240, -1,
      228, 240, 241, -1,
      228, 241, 242, -1,
      228, 242, 246, -1,
      252, 228, 246, -1,
      249, 252, 246, -1,
      250, 251, 252, -1,
      250, 252, 249, -1,
      247, 249, 246, -1,
      248, 249, 247, -1,
      254, 255, 256, -1,
      254, 256, 253, -1,
      258, 259, 260, -1,
      258, 260, 257, -1,
      280, 277, 276, -1,
      280, 278, 277, -1,
      280, 279, 278, -1,
      262, 264, 263, -1,
      262, 265, 264, -1,
      262, 266, 265, -1,
      262, 267, 266, -1,
      262, 268, 267, -1,
      262, 269, 268, -1,
      262, 270, 269, -1,
      262, 271, 270, -1,
      262, 272, 271, -1,
      262, 273, 272, -1,
      262, 274, 273, -1,
      262, 275, 274, -1,
      262, 276, 275, -1,
      262, 280, 276, -1,
      261, 281, 280, -1,
      261, 280, 262, -1,
      285, 284, 302, -1,
      285, 302, 303, -1,
      286, 303, 304, -1,
      286, 285, 303, -1,
      287, 304, 305, -1,
      287, 286, 304, -1,
      288, 305, 306, -1,
      288, 287, 305, -1,
      289, 306, 307, -1,
      289, 288, 306, -1,
      290, 307, 308, -1,
      290, 289, 307, -1,
      291, 308, 309, -1,
      291, 290, 308, -1,
      292, 309, 310, -1,
      292, 291, 309, -1,
      293, 310, 311, -1,
      293, 292, 310, -1,
      294, 311, 312, -1,
      294, 293, 311, -1,
      295, 312, 313, -1,
      295, 294, 312, -1,
      296, 313, 314, -1,
      296, 295, 313, -1,
      297, 314, 315, -1,
      297, 296, 314, -1,
      298, 315, 316, -1,
      298, 297, 315, -1,
      299, 316, 317, -1,
      299, 298, 316, -1,
      300, 299, 317, -1,
      300, 317, 318, -1,
      301, 300, 318, -1,
      301, 318, 319, -1,
      283, 301, 319, -1,
      283, 319, 282, -1,
      321, 322, 323, -1,
      321, 323, 320, -1,
      343, 342, 341, -1,
      325, 327, 326, -1,
      325, 328, 327, -1,
      325, 329, 328, -1,
      325, 330, 329, -1,
      325, 331, 330, -1,
      325, 332, 331, -1,
      325, 333, 332, -1,
      325, 334, 333, -1,
      325, 335, 334, -1,
      325, 336, 335, -1,
      325, 337, 336, -1,
      325, 338, 337, -1,
      325, 339, 338, -1,
      325, 340, 339, -1,
      325, 341, 340, -1,
      325, 343, 341, -1,
      324, 344, 343, -1,
      324, 343, 325, -1,
      346, 347, 348, -1,
      346, 348, 345, -1,
      350, 351, 352, -1,
      350, 352, 349, -1,
      354, 355, 356, -1,
      354, 356, 353, -1,
      360, 359, 377, -1,
      360, 377, 378, -1,
      361, 378, 379, -1,
      361, 360, 378, -1,
      362, 379, 380, -1,
      362, 361, 379, -1,
      363, 380, 381, -1,
      363, 362, 380, -1,
      364, 381, 382, -1,
      364, 363, 381, -1,
      365, 382, 383, -1,
      365, 364, 382, -1,
      366, 383, 384, -1,
      366, 365, 383, -1,
      367, 384, 385, -1,
      367, 366, 384, -1,
      368, 385, 386, -1,
      368, 367, 385, -1,
      369, 386, 387, -1,
      369, 368, 386, -1,
      370, 387, 388, -1,
      370, 369, 387, -1,
      371, 388, 389, -1,
      371, 370, 388, -1,
      372, 389, 390, -1,
      372, 371, 389, -1,
      373, 390, 391, -1,
      373, 372, 390, -1,
      374, 391, 392, -1,
      374, 373, 391, -1,
      375, 374, 392, -1,
      375, 392, 393, -1,
      376, 375, 393, -1,
      376, 393, 394, -1,
      358, 376, 394, -1,
      358, 394, 357, -1,
      413, 411, 412, -1,
      395, 396, 397, -1,
      395, 397, 398, -1,
      395, 398, 399, -1,
      395, 399, 400, -1,
      395, 400, 401, -1,
      395, 401, 402, -1,
      395, 402, 403, -1,
      395, 403, 404, -1,
      395, 404, 405, -1,
      395, 405, 406, -1,
      395, 406, 407, -1,
      395, 407, 408, -1,
      395, 408, 409, -1,
      395, 409, 410, -1,
      395, 410, 411, -1,
      395, 411, 413, -1,
      415, 413, 414, -1,
      415, 395, 413, -1,
      418, 417, 416, -1,
      418, 416, 419, -1,
      420, 421, 422, -1,
      420, 422, 423, -1,
      426, 425, 424, -1,
      426, 424, 427, -1,
      430, 429, 428, -1,
      430, 428, 431, -1,
      439, 440, 441, -1,
      434, 435, 436, -1,
      434, 436, 437, -1,
      434, 437, 438, -1,
      434, 438, 439, -1,
      434, 441, 442, -1,
      434, 442, 443, -1,
      434, 443, 444, -1,
      434, 444, 445, -1,
      434, 445, 446, -1,
      434, 446, 447, -1,
      434, 447, 448, -1,
      434, 448, 449, -1,
      434, 449, 450, -1,
      434, 450, 451, -1,
      434, 451, 452, -1,
      434, 452, 453, -1,
      434, 439, 441, -1,
      456, 453, 454, -1,
      456, 454, 455, -1,
      456, 434, 453, -1,
      433, 456, 432, -1,
      433, 434, 456, -1,
      459, 460, 458, -1,
      457, 459, 458, -1,
      464, 458, 460, -1,
      461, 464, 460, -1,
      462, 463, 464, -1,
      462, 464, 461, -1,
      466, 467, 468, -1,
      466, 468, 465, -1,
      488, 485, 484, -1,
      488, 486, 485, -1,
      488, 487, 486, -1,
      470, 472, 471, -1,
      470, 473, 472, -1,
      470, 474, 473, -1,
      470, 475, 474, -1,
      470, 476, 475, -1,
      470, 477, 476, -1,
      470, 478, 477, -1,
      470, 479, 478, -1,
      470, 480, 479, -1,
      470, 481, 480, -1,
      470, 482, 481, -1,
      470, 483, 482, -1,
      470, 484, 483, -1,
      470, 488, 484, -1,
      469, 489, 488, -1,
      469, 488, 470, -1,
      491, 492, 493, -1,
      491, 493, 490, -1,
      497, 496, 514, -1,
      497, 514, 515, -1,
      498, 515, 516, -1,
      498, 497, 515, -1,
      499, 516, 517, -1,
      499, 498, 516, -1,
      500, 517, 518, -1,
      500, 499, 517, -1,
      501, 518, 519, -1,
      501, 500, 518, -1,
      502, 519, 520, -1,
      502, 501, 519, -1,
      503, 520, 521, -1,
      503, 502, 520, -1,
      504, 521, 522, -1,
      504, 503, 521, -1,
      505, 522, 523, -1,
      505, 504, 522, -1,
      506, 523, 524, -1,
      506, 505, 523, -1,
      507, 524, 525, -1,
      507, 506, 524, -1,
      508, 525, 526, -1,
      508, 507, 525, -1,
      509, 526, 527, -1,
      509, 508, 526, -1,
      510, 527, 528, -1,
      510, 509, 527, -1,
      511, 528, 529, -1,
      511, 510, 528, -1,
      512, 511, 529, -1,
      512, 529, 530, -1,
      513, 512, 530, -1,
      513, 530, 531, -1,
      495, 513, 531, -1,
      495, 531, 494, -1,
      560, 579, 578, -1,
      561, 579, 560, -1,
      539, 558, 557, -1,
      539, 559, 558, -1,
      596, 565, 566, -1,
      597, 564, 565, -1,
      597, 565, 596, -1,
      598, 563, 564, -1,
      598, 564, 597, -1,
      595, 596, 566, -1,
      595, 566, 567, -1,
      599, 563, 598, -1,
      599, 562, 563, -1,
      594, 567, 568, -1,
      594, 595, 567, -1,
      540, 577, 559, -1,
      540, 559, 539, -1,
      600, 579, 561, -1,
      600, 561, 562, -1,
      600, 562, 599, -1,
      593, 568, 569, -1,
      593, 594, 568, -1,
      592, 593, 569, -1,
      582, 579, 600, -1,
      541, 576, 577, -1,
      541, 577, 540, -1,
      591, 569, 570, -1,
      591, 592, 569, -1,
      542, 575, 576, -1,
      542, 576, 541, -1,
      590, 570, 571, -1,
      590, 591, 570, -1,
      543, 575, 542, -1,
      543, 574, 575, -1,
      589, 571, 572, -1,
      589, 590, 571, -1,
      588, 572, 573, -1,
      588, 589, 572, -1,
      544, 574, 543, -1,
      544, 573, 574, -1,
      587, 588, 573, -1,
      538, 537, 536, -1,
      617, 544, 545, -1,
      618, 573, 544, -1,
      618, 544, 617, -1,
      618, 587, 573, -1,
      616, 545, 546, -1,
      616, 617, 545, -1,
      619, 587, 618, -1,
      619, 586, 587, -1,
      615, 546, 547, -1,
      615, 616, 546, -1,
      620, 585, 586, -1,
      620, 586, 619, -1,
      614, 547, 548, -1,
      614, 615, 547, -1,
      621, 585, 620, -1,
      621, 584, 585, -1,
      613, 614, 548, -1,
      603, 583, 584, -1,
      603, 584, 621, -1,
      612, 548, 549, -1,
      612, 613, 548, -1,
      611, 612, 549, -1,
      611, 549, 550, -1,
      580, 579, 582, -1,
      610, 611, 550, -1,
      610, 550, 551, -1,
      535, 538, 536, -1,
      535, 552, 553, -1,
      535, 553, 554, -1,
      535, 554, 555, -1,
      535, 555, 556, -1,
      535, 556, 538, -1,
      609, 551, 552, -1,
      609, 552, 535, -1,
      609, 610, 551, -1,
      608, 609, 535, -1,
      581, 580, 582, -1,
      534, 533, 532, -1,
      639, 608, 535, -1,
      639, 535, 638, -1,
      637, 638, 535, -1,
      640, 607, 608, -1,
      640, 608, 639, -1,
      636, 637, 535, -1,
      641, 606, 607, -1,
      641, 607, 640, -1,
      642, 604, 605, -1,
      642, 605, 606, -1,
      642, 606, 641, -1,
      635, 636, 535, -1,
      624, 604, 642, -1,
      634, 535, 534, -1,
      634, 635, 535, -1,
      633, 634, 534, -1,
      632, 633, 534, -1,
      631, 632, 534, -1,
      630, 631, 534, -1,
      629, 630, 534, -1,
      628, 629, 534, -1,
      627, 628, 534, -1,
      626, 627, 534, -1,
      602, 583, 603, -1,
      602, 601, 583, -1,
      623, 604, 624, -1,
      623, 622, 604, -1,
      644, 643, 625, -1,
      644, 534, 532, -1,
      644, 626, 534, -1,
      644, 625, 626, -1,
      646, 660, 645, -1,
      650, 647, 648, -1,
      650, 648, 649, -1,
      659, 646, 647, -1,
      659, 660, 646, -1,
      659, 647, 650, -1,
      651, 659, 650, -1,
      654, 651, 652, -1,
      654, 652, 653, -1,
      655, 656, 657, -1,
      658, 654, 655, -1,
      658, 659, 651, -1,
      658, 651, 654, -1,
      658, 655, 657, -1,
      668, 664, 667, -1,
      665, 667, 664, -1,
      663, 668, 666, -1,
      663, 664, 668, -1,
      661, 666, 665, -1,
      661, 665, 664, -1,
      662, 666, 661, -1,
      662, 663, 666, -1,
      670, 684, 669, -1,
      674, 671, 672, -1,
      674, 672, 673, -1,
      683, 670, 671, -1,
      683, 684, 670, -1,
      683, 671, 674, -1,
      678, 675, 676, -1,
      678, 676, 677, -1,
      681, 679, 680, -1,
      682, 674, 675, -1,
      682, 678, 679, -1,
      682, 679, 681, -1,
      682, 683, 674, -1,
      682, 675, 678, -1,
      692, 687, 688, -1,
      692, 688, 691, -1,
      685, 690, 689, -1,
      685, 689, 691, -1,
      685, 691, 688, -1,
      686, 692, 690, -1,
      686, 687, 692, -1,
      686, 690, 685, -1,
      695, 693, 694, -1,
      695, 696, 693, -1,
      704, 706, 705, -1,
      699, 701, 700, -1,
      699, 702, 701, -1,
      699, 703, 702, -1,
      699, 704, 703, -1,
      699, 707, 706, -1,
      699, 708, 707, -1,
      699, 709, 708, -1,
      699, 710, 709, -1,
      699, 711, 710, -1,
      699, 712, 711, -1,
      699, 713, 712, -1,
      699, 714, 713, -1,
      699, 715, 714, -1,
      699, 716, 715, -1,
      699, 717, 716, -1,
      699, 718, 717, -1,
      699, 706, 704, -1,
      721, 719, 718, -1,
      721, 720, 719, -1,
      721, 718, 699, -1,
      698, 697, 721, -1,
      698, 721, 699, -1,
      724, 723, 722, -1,
      724, 722, 725, -1,
      747, 727, 726, -1,
      747, 726, 746, -1,
      748, 728, 727, -1,
      748, 727, 747, -1,
      749, 729, 728, -1,
      749, 728, 748, -1,
      750, 730, 729, -1,
      750, 729, 749, -1,
      751, 731, 730, -1,
      751, 730, 750, -1,
      752, 732, 731, -1,
      752, 731, 751, -1,
      753, 733, 732, -1,
      753, 732, 752, -1,
      754, 734, 733, -1,
      754, 733, 753, -1,
      755, 735, 734, -1,
      755, 734, 754, -1,
      756, 736, 735, -1,
      756, 735, 755, -1,
      757, 737, 736, -1,
      757, 736, 756, -1,
      758, 738, 737, -1,
      758, 739, 738, -1,
      758, 737, 757, -1,
      759, 739, 758, -1,
      760, 740, 739, -1,
      760, 739, 759, -1,
      761, 740, 760, -1,
      761, 741, 740, -1,
      762, 741, 761, -1,
      762, 742, 741, -1,
      762, 743, 742, -1,
      763, 743, 762, -1,
      745, 743, 763, -1,
      745, 744, 743, -1,
      771, 769, 765, -1,
      770, 769, 771, -1,
      768, 765, 769, -1,
      764, 765, 768, -1,
      766, 768, 767, -1,
      766, 764, 768, -1,
      773, 772, 774, -1,
      773, 774, 775, -1,
      777, 778, 776, -1,
      777, 779, 778, -1,
      782, 780, 781, -1,
      782, 783, 780, -1,
      789, 784, 791, -1,
      790, 789, 791, -1,
      785, 789, 788, -1,
      785, 784, 789, -1,
      786, 788, 787, -1,
      786, 785, 788, -1,
      813, 793, 792, -1,
      813, 792, 812, -1,
      814, 794, 793, -1,
      814, 793, 813, -1,
      815, 795, 794, -1,
      815, 794, 814, -1,
      816, 796, 795, -1,
      816, 795, 815, -1,
      817, 797, 796, -1,
      817, 796, 816, -1,
      818, 798, 797, -1,
      818, 797, 817, -1,
      819, 799, 798, -1,
      819, 798, 818, -1,
      820, 800, 799, -1,
      820, 799, 819, -1,
      821, 801, 800, -1,
      821, 800, 820, -1,
      822, 802, 801, -1,
      822, 801, 821, -1,
      823, 803, 802, -1,
      823, 802, 822, -1,
      824, 804, 803, -1,
      824, 805, 804, -1,
      824, 803, 823, -1,
      825, 805, 824, -1,
      826, 806, 805, -1,
      826, 805, 825, -1,
      827, 806, 826, -1,
      827, 807, 806, -1,
      828, 807, 827, -1,
      828, 808, 807, -1,
      828, 809, 808, -1,
      829, 809, 828, -1,
      811, 809, 829, -1,
      811, 810, 809, -1,
      832, 830, 831, -1,
      832, 831, 833, -1,
      858, 855, 854, -1,
      858, 856, 855, -1,
      858, 857, 856, -1,
      840, 842, 841, -1,
      840, 843, 842, -1,
      840, 844, 843, -1,
      840, 845, 844, -1,
      840, 846, 845, -1,
      840, 847, 846, -1,
      840, 848, 847, -1,
      840, 849, 848, -1,
      840, 850, 849, -1,
      840, 851, 850, -1,
      840, 852, 851, -1,
      840, 853, 852, -1,
      840, 854, 853, -1,
      840, 858, 854, -1,
      839, 858, 840, -1,
      836, 858, 839, -1,
      837, 839, 838, -1,
      837, 836, 839, -1,
      834, 858, 836, -1,
      835, 834, 836, -1,
      860, 862, 861, -1,
      860, 859, 862, -1,
      866, 863, 864, -1,
      866, 864, 865, -1,
      870, 867, 868, -1,
      870, 869, 867, -1,
      873, 872, 871, -1,
      873, 871, 874, -1,
      896, 876, 875, -1,
      896, 875, 895, -1,
      897, 877, 876, -1,
      897, 876, 896, -1,
      898, 878, 877, -1,
      898, 877, 897, -1,
      899, 879, 878, -1,
      899, 878, 898, -1,
      900, 880, 879, -1,
      900, 879, 899, -1,
      901, 881, 880, -1,
      901, 880, 900, -1,
      902, 882, 881, -1,
      902, 881, 901, -1,
      903, 883, 882, -1,
      903, 882, 902, -1,
      904, 884, 883, -1,
      904, 883, 903, -1,
      905, 885, 884, -1,
      905, 884, 904, -1,
      906, 886, 885, -1,
      906, 885, 905, -1,
      907, 887, 886, -1,
      907, 888, 887, -1,
      907, 886, 906, -1,
      908, 888, 907, -1,
      909, 889, 888, -1,
      909, 888, 908, -1,
      910, 889, 909, -1,
      910, 890, 889, -1,
      911, 890, 910, -1,
      911, 891, 890, -1,
      911, 892, 891, -1,
      912, 892, 911, -1,
      894, 892, 912, -1,
      894, 893, 892, -1,
      915, 913, 914, -1,
      915, 914, 916, -1,
      937, 936, 935, -1,
      919, 921, 920, -1,
      919, 922, 921, -1,
      919, 923, 922, -1,
      919, 924, 923, -1,
      919, 925, 924, -1,
      919, 926, 925, -1,
      919, 927, 926, -1,
      919, 928, 927, -1,
      919, 929, 928, -1,
      919, 930, 929, -1,
      919, 931, 930, -1,
      919, 932, 931, -1,
      919, 933, 932, -1,
      919, 934, 933, -1,
      919, 935, 934, -1,
      919, 937, 935, -1,
      918, 917, 937, -1,
      918, 937, 919, -1,
      940, 938, 939, -1,
      940, 939, 941, -1,
      963, 943, 942, -1,
      963, 942, 962, -1,
      964, 944, 943, -1,
      964, 943, 963, -1,
      965, 945, 944, -1,
      965, 944, 964, -1,
      966, 946, 945, -1,
      966, 945, 965, -1,
      967, 947, 946, -1,
      967, 946, 966, -1,
      968, 948, 947, -1,
      968, 947, 967, -1,
      969, 949, 948, -1,
      969, 948, 968, -1,
      970, 950, 949, -1,
      970, 949, 969, -1,
      971, 951, 950, -1,
      971, 950, 970, -1,
      972, 952, 951, -1,
      972, 951, 971, -1,
      973, 953, 952, -1,
      973, 952, 972, -1,
      974, 954, 953, -1,
      974, 953, 973, -1,
      975, 955, 954, -1,
      975, 954, 974, -1,
      976, 956, 955, -1,
      976, 955, 975, -1,
      977, 956, 976, -1,
      977, 957, 956, -1,
      978, 957, 977, -1,
      978, 958, 957, -1,
      978, 959, 958, -1,
      979, 959, 978, -1,
      961, 959, 979, -1,
      961, 960, 959, -1,
      982, 981, 980, -1,
      982, 980, 983, -1,
      984, 986, 985, -1,
      984, 987, 986, -1,
      998, 997, 996, -1,
      1001, 988, 987, -1,
      1001, 989, 988, -1,
      1001, 990, 989, -1,
      1001, 991, 990, -1,
      1001, 992, 991, -1,
      1001, 993, 992, -1,
      1001, 994, 993, -1,
      1001, 995, 994, -1,
      1001, 996, 995, -1,
      1001, 999, 998, -1,
      1001, 1000, 999, -1,
      1001, 1003, 1002, -1,
      1001, 1004, 1003, -1,
      1001, 984, 1004, -1,
      1001, 987, 984, -1,
      1001, 998, 996, -1,
      1007, 1005, 1006, -1,
      1007, 1006, 1008, -1,
      1030, 1010, 1009, -1,
      1030, 1009, 1029, -1,
      1031, 1011, 1010, -1,
      1031, 1010, 1030, -1,
      1032, 1012, 1011, -1,
      1032, 1011, 1031, -1,
      1033, 1013, 1012, -1,
      1033, 1012, 1032, -1,
      1034, 1014, 1013, -1,
      1034, 1013, 1033, -1,
      1035, 1015, 1014, -1,
      1035, 1014, 1034, -1,
      1036, 1016, 1015, -1,
      1036, 1015, 1035, -1,
      1037, 1017, 1016, -1,
      1037, 1016, 1036, -1,
      1038, 1018, 1017, -1,
      1038, 1017, 1037, -1,
      1039, 1019, 1018, -1,
      1039, 1018, 1038, -1,
      1040, 1020, 1019, -1,
      1040, 1019, 1039, -1,
      1041, 1021, 1020, -1,
      1041, 1020, 1040, -1,
      1042, 1022, 1021, -1,
      1042, 1021, 1041, -1,
      1043, 1023, 1022, -1,
      1043, 1022, 1042, -1,
      1044, 1023, 1043, -1,
      1044, 1024, 1023, -1,
      1045, 1024, 1044, -1,
      1045, 1025, 1024, -1,
      1045, 1026, 1025, -1,
      1046, 1026, 1045, -1,
      1028, 1026, 1046, -1,
      1028, 1027, 1026, -1,
      1049, 1048, 1047, -1,
      1049, 1047, 1050, -1,
      1051, 1053, 1052, -1,
      1051, 1054, 1053, -1,
      1067, 1055, 1054, -1,
      1067, 1056, 1055, -1,
      1067, 1057, 1056, -1,
      1067, 1058, 1057, -1,
      1067, 1059, 1058, -1,
      1067, 1060, 1059, -1,
      1067, 1061, 1060, -1,
      1067, 1062, 1061, -1,
      1067, 1063, 1062, -1,
      1067, 1064, 1063, -1,
      1067, 1065, 1064, -1,
      1067, 1066, 1065, -1,
      1067, 1069, 1068, -1,
      1067, 1070, 1069, -1,
      1067, 1071, 1070, -1,
      1067, 1051, 1071, -1,
      1067, 1054, 1051, -1,
      1074, 1072, 1073, -1,
      1074, 1073, 1075, -1,
      1078, 1077, 1076, -1,
      1078, 1076, 1079, -1,
      1082, 1081, 1080, -1,
      1082, 1080, 1083, -1,
      1087, 1084, 1085, -1,
      1087, 1086, 1084, -1,
    ]
  }
}
