#VRML V2.0 utf8
Shape {
  appearance Appearance { material Material { diffuseColor 0.68 0.70 0.72 specularColor 0.35 0.35 0.35 shininess 0.55 } }
  geometry IndexedFaceSet {
    solid FALSE
    coord Coordinate { point [
      0.1968504 0.31496062 0.0098425197,
      0.1968504 0.1968504 0.0098425197,
      0.11811024 0.31496062 0.0098425197,
      0.11811024 0.1968504 0.0098425197,
      0.039370078 0.1968504 0.0098425197,
      0.039370078 0.31496062 0.0098425197,
      -0.039370078 0.31496062 0.0098425197,
      -0.039370078 0.1968504 0.0098425197,
      -0.11811024 0.1968504 0.0098425197,
      -0.11811024 0.31496062 0.0098425197,
      -0.1968504 0.31496062 0.0098425197,
      -0.1968504 0.1968504 0.0098425197,
      -0.27559054 0.1968504 0.0098425197,
      -0.27559054 0.31496062 0.0098425197,
      -0.31496062 0.31496062 0.0098425197,
      -0.31496062 0.11811024 0.0098425197,
      -0.17716535 0.11811024 0.0098425197,
      -0.11811024 0.078277055 0.0098425197,
      -0.11811024 0.039370078 0.0098425197,
      -0.31496062 0.039370078 0.0098425197,
      -0.31496062 -0.039370078 0.0098425197,
      -0.11811024 -0.039370078 0.0098425197,
      -0.11811024 -0.11811024 0.0098425197,
      -0.31496062 -0.11811024 0.0098425197,
      -0.31496062 -0.31496062 0.0098425197,
      -0.27559054 -0.31496062 0.0098425197,
      -0.27559054 -0.1968504 0.0098425197,
      -0.1968504 -0.1968504 0.0098425197,
      -0.1968504 -0.31496062 0.0098425197,
      -0.11811024 -0.31496062 0.0098425197,
      -0.11811024 -0.1968504 0.0098425197,
      -0.039370078 -0.1968504 0.0098425197,
      -0.039370078 -0.31496062 0.0098425197,
      0.039370078 -0.31496062 0.0098425197,
      0.039370078 -0.1968504 0.0098425197,
      0.11811024 -0.1968504 0.0098425197,
      0.11811024 -0.31496062 0.0098425197,
      0.1968504 -0.31496062 0.0098425197,
      0.1968504 -0.1968504 0.0098425197,
      0.27559054 -0.1968504 0.0098425197,
      0.27559054 -0.31496062 0.0098425197,
      0.31496062 -0.31496062 0.0098425197,
      0.31496062 -0.11811024 0.0098425197,
      0.11811024 -0.11811024 0.0098425197,
      0.11811024 -0.039370078 0.0098425197,
      0.31496062 -0.039370078 0.0098425197,
      0.31496062 0.039370078 0.0098425197,
      0.11811024 0.039370078 0.0098425197,
      0.11811024 0.11811024 0.0098425197,
      0.31496062 0.11811024 0.0098425197,
      0.31496062 0.31496062 0.0098425197,
      0.27559054 0.31496062 0.0098425197,
      0.27559054 0.1968504 0.0098425197,
      0.1968504 0.31496062 0.0098425197,
      0.1968504 0.1968504 0.0098425197,
      0.1968504 0.1968504 0.051181102,
      0.1968504 0.31496062 0.051181102,
      0.1968504 0.1968504 0.0098425197,
      0.27559054 0.1968504 0.0098425197,
      0.27559054 0.1968504 0.051181102,
      0.1968504 0.1968504 0.051181102,
      0.27559054 0.31496062 0.0098425197,
      0.27559054 0.1968504 0.0098425197,
      0.27559054 0.31496062 0.051181102,
      0.27559054 0.1968504 0.051181102,
      0.1968504 0.31496062 0.0098425197,
      0.1968504 0.31496062 0.051181102,
      0.11811024 0.31496062 0.0098425197,
      0.11811024 0.31496062 0.051181102,
      0.039370078 0.31496062 0.051181102,
      0.039370078 0.31496062 0.0098425197,
      -0.039370078 0.31496062 0.0098425197,
      -0.039370078 0.31496062 0.051181102,
      -0.11811024 0.31496062 0.051181102,
      -0.11811024 0.31496062 0.0098425197,
      -0.1968504 0.31496062 0.0098425197,
      -0.1968504 0.31496062 0.051181102,
      -0.27559054 0.31496062 0.051181102,
      -0.27559054 0.31496062 0.0098425197,
      -0.31496062 0.31496062 0.0098425197,
      -0.31496062 0.31496062 0.15748032,
      0.31496062 0.31496062 0.15748032,
      0.31496062 0.31496062 0.0098425197,
      0.27559054 0.31496062 0.0098425197,
      0.27559054 0.31496062 0.051181102,
      -0.31496062 0.11811024 0.051181102,
      -0.31496062 0.039370078 0.051181102,
      -0.11811024 0.039370078 0.051181102,
      -0.11811024 0.078277055 0.051181102,
      -0.17716535 0.11811024 0.051181102,
      -0.31496062 -0.039370078 0.051181102,
      -0.31496062 -0.11811024 0.051181102,
      -0.11811024 -0.11811024 0.051181102,
      -0.11811024 -0.039370078 0.051181102,
      -0.27559054 -0.31496062 0.051181102,
      -0.1968504 -0.31496062 0.051181102,
      -0.1968504 -0.1968504 0.051181102,
      -0.27559054 -0.1968504 0.051181102,
      -0.11811024 -0.31496062 0.051181102,
      -0.039370078 -0.31496062 0.051181102,
      -0.039370078 -0.1968504 0.051181102,
      -0.11811024 -0.1968504 0.051181102,
      0.039370078 -0.31496062 0.051181102,
      0.11811024 -0.31496062 0.051181102,
      0.11811024 -0.1968504 0.051181102,
      0.039370078 -0.1968504 0.051181102,
      0.1968504 -0.31496062 0.051181102,
      0.27559054 -0.31496062 0.051181102,
      0.27559054 -0.1968504 0.051181102,
      0.1968504 -0.1968504 0.051181102,
      0.31496062 -0.11811024 0.051181102,
      0.31496062 -0.039370078 0.051181102,
      0.11811024 -0.039370078 0.051181102,
      0.11811024 -0.11811024 0.051181102,
      0.31496062 0.039370078 0.051181102,
      0.31496062 0.11811024 0.051181102,
      0.11811024 0.11811024 0.051181102,
      0.11811024 0.039370078 0.051181102,
      0.27559054 0.31496062 0.051181102,
      0.1968504 0.31496062 0.051181102,
      0.1968504 0.1968504 0.051181102,
      0.27559054 0.1968504 0.051181102,
      0.11811024 0.31496062 0.051181102,
      0.039370078 0.31496062 0.051181102,
      0.039370078 0.1968504 0.051181102,
      0.11811024 0.1968504 0.051181102,
      -0.039370078 0.31496062 0.051181102,
      -0.11811024 0.31496062 0.051181102,
      -0.11811024 0.1968504 0.051181102,
      -0.039370078 0.1968504 0.051181102,
      -0.1968504 0.31496062 0.051181102,
      -0.27559054 0.31496062 0.051181102,
      -0.27559054 0.1968504 0.051181102,
      -0.1968504 0.1968504 0.051181102,
      -0.31496062 0.039370078 0.0098425197,
      -0.31496062 0.039370078 0.051181102,
      -0.31496062 -0.039370078 0.0098425197,
      -0.31496062 -0.039370078 0.051181102,
      -0.31496062 -0.11811024 0.051181102,
      -0.31496062 -0.11811024 0.0098425197,
      -0.31496062 -0.31496062 0.0098425197,
      -0.31496062 -0.31496062 0.15748032,
      -0.31496062 0.31496062 0.15748032,
      -0.31496062 0.31496062 0.0098425197,
      -0.31496062 0.11811024 0.0098425197,
      -0.31496062 0.11811024 0.051181102,
      -0.31496062 0.11811024 0.0098425197,
      -0.17716535 0.11811024 0.0098425197,
      -0.31496062 0.11811024 0.051181102,
      -0.17716535 0.11811024 0.051181102,
      -0.17716535 0.11811024 0.0098425197,
      -0.11811024 0.078277055 0.0098425197,
      -0.17716535 0.11811024 0.051181102,
      -0.11811024 0.078277055 0.051181102,
      -0.11811024 0.039370078 0.0098425197,
      -0.11811024 0.078277055 0.0098425197,
      -0.11811024 0.078277055 0.051181102,
      -0.11811024 0.039370078 0.051181102,
      -0.31496062 0.039370078 0.0098425197,
      -0.11811024 0.039370078 0.0098425197,
      -0.11811024 0.039370078 0.051181102,
      -0.31496062 0.039370078 0.051181102,
      -0.31496062 -0.31496062 0.15748032,
      0.31496062 -0.31496062 0.15748032,
      0.31496062 0.31496062 0.15748032,
      -0.31496062 0.31496062 0.15748032,
      0.31496062 -0.039370078 0.0098425197,
      0.31496062 -0.039370078 0.051181102,
      0.31496062 0.039370078 0.0098425197,
      0.31496062 0.039370078 0.051181102,
      0.31496062 0.11811024 0.051181102,
      0.31496062 0.11811024 0.0098425197,
      0.31496062 0.31496062 0.0098425197,
      0.31496062 0.31496062 0.15748032,
      0.31496062 -0.31496062 0.15748032,
      0.31496062 -0.31496062 0.0098425197,
      0.31496062 -0.11811024 0.0098425197,
      0.31496062 -0.11811024 0.051181102,
      0.11811024 -0.11811024 0.0098425197,
      0.11811024 -0.11811024 0.051181102,
      0.31496062 -0.11811024 0.051181102,
      0.31496062 -0.11811024 0.0098425197,
      0.11811024 -0.039370078 0.0098425197,
      0.11811024 -0.039370078 0.051181102,
      0.11811024 -0.11811024 0.051181102,
      0.11811024 -0.11811024 0.0098425197,
      0.31496062 -0.039370078 0.0098425197,
      0.31496062 -0.039370078 0.051181102,
      0.11811024 -0.039370078 0.051181102,
      0.11811024 -0.039370078 0.0098425197,
      -0.1968504 -0.31496062 0.0098425197,
      -0.1968504 -0.31496062 0.051181102,
      -0.11811024 -0.31496062 0.0098425197,
      -0.11811024 -0.31496062 0.051181102,
      -0.039370078 -0.31496062 0.051181102,
      -0.039370078 -0.31496062 0.0098425197,
      0.039370078 -0.31496062 0.0098425197,
      0.039370078 -0.31496062 0.051181102,
      0.11811024 -0.31496062 0.051181102,
      0.11811024 -0.31496062 0.0098425197,
      0.1968504 -0.31496062 0.0098425197,
      0.1968504 -0.31496062 0.051181102,
      0.27559054 -0.31496062 0.051181102,
      0.27559054 -0.31496062 0.0098425197,
      0.31496062 -0.31496062 0.0098425197,
      0.31496062 -0.31496062 0.15748032,
      -0.31496062 -0.31496062 0.15748032,
      -0.31496062 -0.31496062 0.0098425197,
      -0.27559054 -0.31496062 0.0098425197,
      -0.27559054 -0.31496062 0.051181102,
      -0.27559054 -0.1968504 0.0098425197,
      -0.27559054 -0.1968504 0.051181102,
      -0.27559054 -0.31496062 0.051181102,
      -0.27559054 -0.31496062 0.0098425197,
      -0.1968504 -0.1968504 0.0098425197,
      -0.1968504 -0.1968504 0.051181102,
      -0.27559054 -0.1968504 0.051181102,
      -0.27559054 -0.1968504 0.0098425197,
      -0.1968504 -0.31496062 0.0098425197,
      -0.1968504 -0.31496062 0.051181102,
      -0.1968504 -0.1968504 0.051181102,
      -0.1968504 -0.1968504 0.0098425197,
      0.27559054 -0.31496062 0.0098425197,
      0.27559054 -0.31496062 0.051181102,
      0.27559054 -0.1968504 0.051181102,
      0.27559054 -0.1968504 0.0098425197,
      0.27559054 -0.1968504 0.0098425197,
      0.27559054 -0.1968504 0.051181102,
      0.1968504 -0.1968504 0.051181102,
      0.1968504 -0.1968504 0.0098425197,
      0.1968504 -0.1968504 0.0098425197,
      0.1968504 -0.1968504 0.051181102,
      0.1968504 -0.31496062 0.051181102,
      0.1968504 -0.31496062 0.0098425197,
      0.11811024 -0.31496062 0.0098425197,
      0.11811024 -0.31496062 0.051181102,
      0.11811024 -0.1968504 0.051181102,
      0.11811024 -0.1968504 0.0098425197,
      0.11811024 -0.1968504 0.0098425197,
      0.11811024 -0.1968504 0.051181102,
      0.039370078 -0.1968504 0.051181102,
      0.039370078 -0.1968504 0.0098425197,
      0.039370078 -0.1968504 0.0098425197,
      0.039370078 -0.1968504 0.051181102,
      0.039370078 -0.31496062 0.051181102,
      0.039370078 -0.31496062 0.0098425197,
      -0.039370078 -0.31496062 0.0098425197,
      -0.039370078 -0.31496062 0.051181102,
      -0.039370078 -0.1968504 0.051181102,
      -0.039370078 -0.1968504 0.0098425197,
      -0.039370078 -0.1968504 0.0098425197,
      -0.039370078 -0.1968504 0.051181102,
      -0.11811024 -0.1968504 0.051181102,
      -0.11811024 -0.1968504 0.0098425197,
      -0.11811024 -0.1968504 0.0098425197,
      -0.11811024 -0.1968504 0.051181102,
      -0.11811024 -0.31496062 0.051181102,
      -0.11811024 -0.31496062 0.0098425197,
      0.31496062 0.11811024 0.0098425197,
      0.31496062 0.11811024 0.051181102,
      0.11811024 0.11811024 0.051181102,
      0.11811024 0.11811024 0.0098425197,
      0.11811024 0.11811024 0.0098425197,
      0.11811024 0.11811024 0.051181102,
      0.11811024 0.039370078 0.051181102,
      0.11811024 0.039370078 0.0098425197,
      0.11811024 0.039370078 0.0098425197,
      0.11811024 0.039370078 0.051181102,
      0.31496062 0.039370078 0.051181102,
      0.31496062 0.039370078 0.0098425197,
      -0.31496062 -0.11811024 0.0098425197,
      -0.11811024 -0.11811024 0.0098425197,
      -0.11811024 -0.11811024 0.051181102,
      -0.31496062 -0.11811024 0.051181102,
      -0.11811024 -0.11811024 0.0098425197,
      -0.11811024 -0.039370078 0.0098425197,
      -0.11811024 -0.039370078 0.051181102,
      -0.11811024 -0.11811024 0.051181102,
      -0.31496062 -0.039370078 0.0098425197,
      -0.11811024 -0.039370078 0.0098425197,
      -0.31496062 -0.039370078 0.051181102,
      -0.11811024 -0.039370078 0.051181102,
      0.039370078 0.31496062 0.0098425197,
      0.039370078 0.1968504 0.0098425197,
      0.039370078 0.1968504 0.051181102,
      0.039370078 0.31496062 0.051181102,
      0.039370078 0.1968504 0.0098425197,
      0.11811024 0.1968504 0.0098425197,
      0.11811024 0.1968504 0.051181102,
      0.039370078 0.1968504 0.051181102,
      0.11811024 0.31496062 0.0098425197,
      0.11811024 0.1968504 0.0098425197,
      0.11811024 0.31496062 0.051181102,
      0.11811024 0.1968504 0.051181102,
      -0.11811024 0.31496062 0.0098425197,
      -0.11811024 0.1968504 0.0098425197,
      -0.11811024 0.1968504 0.051181102,
      -0.11811024 0.31496062 0.051181102,
      -0.11811024 0.1968504 0.0098425197,
      -0.039370078 0.1968504 0.0098425197,
      -0.039370078 0.1968504 0.051181102,
      -0.11811024 0.1968504 0.051181102,
      -0.039370078 0.31496062 0.0098425197,
      -0.039370078 0.1968504 0.0098425197,
      -0.039370078 0.31496062 0.051181102,
      -0.039370078 0.1968504 0.051181102,
      -0.27559054 0.31496062 0.0098425197,
      -0.27559054 0.1968504 0.0098425197,
      -0.27559054 0.1968504 0.051181102,
      -0.27559054 0.31496062 0.051181102,
      -0.27559054 0.1968504 0.0098425197,
      -0.1968504 0.1968504 0.0098425197,
      -0.1968504 0.1968504 0.051181102,
      -0.27559054 0.1968504 0.051181102,
      -0.1968504 0.31496062 0.0098425197,
      -0.1968504 0.1968504 0.0098425197,
      -0.1968504 0.31496062 0.051181102,
      -0.1968504 0.1968504 0.051181102,
      -0.31496062 0.11811024 0,
      -0.17716535 0.11811024 0,
      -0.31496062 0.11811024 0.051181103,
      -0.17716535 0.11811024 0.051181103,
      -0.17716535 0.11811024 0.051181103,
      -0.17716535 0.11811024 0,
      -0.11811024 0.078277055 0.051181103,
      -0.11811024 0.078277055 0,
      -0.17716535 0.11811024 0,
      -0.11811024 0.078277055 0,
      -0.31496062 0.11811024 0,
      -0.31496062 0.039370078 0,
      -0.11811024 0.039370078 0,
      -0.31496062 0.11811024 0,
      -0.31496062 0.11811024 0.051181103,
      -0.31496062 0.039370078 0.051181103,
      -0.31496062 0.039370078 0,
      -0.31496062 0.11811024 0.051181103,
      -0.17716535 0.11811024 0.051181103,
      -0.31496062 0.039370078 0.051181103,
      -0.11811024 0.039370078 0.051181103,
      -0.11811024 0.078277055 0.051181103,
      -0.11811024 0.039370078 0.051181103,
      -0.11811024 0.078277055 0.051181103,
      -0.11811024 0.039370078 0,
      -0.11811024 0.078277055 0,
      -0.11811024 0.039370078 0,
      -0.31496062 0.039370078 0,
      -0.11811024 0.039370078 0.051181103,
      -0.31496062 0.039370078 0.051181103,
      -0.31496062 -0.11811024 0,
      -0.31496062 -0.039370078 0,
      -0.11811024 -0.11811024 0,
      -0.11811024 -0.039370078 0,
      -0.31496062 -0.039370078 0,
      -0.31496062 -0.039370078 0.051181103,
      -0.31496062 -0.11811024 0.051181103,
      -0.31496062 -0.11811024 0,
      -0.31496062 -0.039370078 0.051181103,
      -0.11811024 -0.039370078 0.051181103,
      -0.11811024 -0.039370078 0,
      -0.31496062 -0.039370078 0,
      -0.11811024 -0.039370078 0,
      -0.11811024 -0.039370078 0.051181103,
      -0.11811024 -0.11811024 0.051181103,
      -0.11811024 -0.11811024 0,
      -0.11811024 -0.11811024 0,
      -0.31496062 -0.11811024 0,
      -0.11811024 -0.11811024 0.051181103,
      -0.31496062 -0.11811024 0.051181103,
      -0.11811024 -0.11811024 0.051181103,
      -0.31496062 -0.11811024 0.051181103,
      -0.11811024 -0.039370078 0.051181103,
      -0.31496062 -0.039370078 0.051181103,
      -0.1968504 -0.31496062 0,
      -0.27559054 -0.31496062 0,
      -0.1968504 -0.1968504 0,
      -0.27559054 -0.1968504 0,
      -0.27559054 -0.31496062 0,
      -0.27559054 -0.31496062 0.051181103,
      -0.1968504 -0.31496062 0.051181103,
      -0.1968504 -0.31496062 0,
      -0.27559054 -0.31496062 0,
      -0.27559054 -0.31496062 0.051181103,
      -0.27559054 -0.1968504 0,
      -0.27559054 -0.1968504 0.051181103,
      -0.27559054 -0.1968504 0,
      -0.1968504 -0.1968504 0,
      -0.1968504 -0.1968504 0.051181103,
      -0.27559054 -0.1968504 0.051181103,
      -0.1968504 -0.31496062 0,
      -0.1968504 -0.31496062 0.051181103,
      -0.1968504 -0.1968504 0.051181103,
      -0.1968504 -0.1968504 0,
      -0.1968504 -0.1968504 0.051181103,
      -0.1968504 -0.31496062 0.051181103,
      -0.27559054 -0.1968504 0.051181103,
      -0.27559054 -0.31496062 0.051181103,
      -0.039370078 -0.31496062 0,
      -0.11811024 -0.31496062 0,
      -0.039370078 -0.1968504 0,
      -0.11811024 -0.1968504 0,
      -0.11811024 -0.31496062 0,
      -0.11811024 -0.31496062 0.051181103,
      -0.039370078 -0.31496062 0.051181103,
      -0.039370078 -0.31496062 0,
      -0.11811024 -0.31496062 0,
      -0.11811024 -0.31496062 0.051181103,
      -0.11811024 -0.1968504 0,
      -0.11811024 -0.1968504 0.051181103,
      -0.11811024 -0.1968504 0,
      -0.039370078 -0.1968504 0,
      -0.039370078 -0.1968504 0.051181103,
      -0.11811024 -0.1968504 0.051181103,
      -0.039370078 -0.31496062 0,
      -0.039370078 -0.31496062 0.051181103,
      -0.039370078 -0.1968504 0.051181103,
      -0.039370078 -0.1968504 0,
      -0.039370078 -0.1968504 0.051181103,
      -0.039370078 -0.31496062 0.051181103,
      -0.11811024 -0.1968504 0.051181103,
      -0.11811024 -0.31496062 0.051181103,
      0.11811024 -0.31496062 0,
      0.039370078 -0.31496062 0,
      0.11811024 -0.1968504 0,
      0.039370078 -0.1968504 0,
      0.039370078 -0.31496062 0,
      0.039370078 -0.31496062 0.051181103,
      0.11811024 -0.31496062 0.051181103,
      0.11811024 -0.31496062 0,
      0.039370078 -0.31496062 0,
      0.039370078 -0.31496062 0.051181103,
      0.039370078 -0.1968504 0,
      0.039370078 -0.1968504 0.051181103,
      0.039370078 -0.1968504 0,
      0.11811024 -0.1968504 0,
      0.11811024 -0.1968504 0.051181103,
      0.039370078 -0.1968504 0.051181103,
      0.11811024 -0.31496062 0,
      0.11811024 -0.31496062 0.051181103,
      0.11811024 -0.1968504 0.051181103,
      0.11811024 -0.1968504 0,
      0.11811024 -0.1968504 0.051181103,
      0.11811024 -0.31496062 0.051181103,
      0.039370078 -0.1968504 0.051181103,
      0.039370078 -0.31496062 0.051181103,
      0.27559054 -0.31496062 0,
      0.1968504 -0.31496062 0,
      0.27559054 -0.1968504 0,
      0.1968504 -0.1968504 0,
      0.1968504 -0.31496062 0,
      0.1968504 -0.31496062 0.051181103,
      0.27559054 -0.31496062 0.051181103,
      0.27559054 -0.31496062 0,
      0.1968504 -0.31496062 0,
      0.1968504 -0.31496062 0.051181103,
      0.1968504 -0.1968504 0,
      0.1968504 -0.1968504 0.051181103,
      0.1968504 -0.1968504 0,
      0.27559054 -0.1968504 0,
      0.27559054 -0.1968504 0.051181103,
      0.1968504 -0.1968504 0.051181103,
      0.27559054 -0.31496062 0,
      0.27559054 -0.31496062 0.051181103,
      0.27559054 -0.1968504 0.051181103,
      0.27559054 -0.1968504 0,
      0.27559054 -0.1968504 0.051181103,
      0.27559054 -0.31496062 0.051181103,
      0.1968504 -0.1968504 0.051181103,
      0.1968504 -0.31496062 0.051181103,
      0.31496062 -0.039370078 0,
      0.31496062 -0.11811024 0,
      0.11811024 -0.039370078 0,
      0.11811024 -0.11811024 0,
      0.31496062 -0.11811024 0,
      0.31496062 -0.11811024 0.051181103,
      0.31496062 -0.039370078 0.051181103,
      0.31496062 -0.039370078 0,
      0.31496062 -0.11811024 0,
      0.31496062 -0.11811024 0.051181103,
      0.11811024 -0.11811024 0,
      0.11811024 -0.11811024 0.051181103,
      0.11811024 -0.11811024 0,
      0.11811024 -0.039370078 0,
      0.11811024 -0.039370078 0.051181103,
      0.11811024 -0.11811024 0.051181103,
      0.31496062 -0.039370078 0,
      0.31496062 -0.039370078 0.051181103,
      0.11811024 -0.039370078 0.051181103,
      0.11811024 -0.039370078 0,
      0.11811024 -0.039370078 0.051181103,
      0.31496062 -0.039370078 0.051181103,
      0.11811024 -0.11811024 0.051181103,
      0.31496062 -0.11811024 0.051181103,
      0.31496062 0.11811024 0,
      0.31496062 0.039370078 0,
      0.11811024 0.11811024 0,
      0.11811024 0.039370078 0,
      0.31496062 0.039370078 0,
      0.31496062 0.039370078 0.051181103,
      0.31496062 0.11811024 0.051181103,
      0.31496062 0.11811024 0,
      0.31496062 0.039370078 0,
      0.31496062 0.039370078 0.051181103,
      0.11811024 0.039370078 0,
      0.11811024 0.039370078 0.051181103,
      0.11811024 0.039370078 0,
      0.11811024 0.11811024 0,
      0.11811024 0.11811024 0.051181103,
      0.11811024 0.039370078 0.051181103,
      0.31496062 0.11811024 0,
      0.31496062 0.11811024 0.051181103,
      0.11811024 0.11811024 0.051181103,
      0.11811024 0.11811024 0,
      0.11811024 0.11811024 0.051181103,
      0.31496062 0.11811024 0.051181103,
      0.11811024 0.039370078 0.051181103,
      0.31496062 0.039370078 0.051181103,
      -0.27559054 0.31496062 0,
      -0.1968504 0.31496062 0,
      -0.27559054 0.1968504 0,
      -0.1968504 0.1968504 0,
      -0.1968504 0.31496062 0,
      -0.1968504 0.31496062 0.051181103,
      -0.27559054 0.31496062 0.051181103,
      -0.27559054 0.31496062 0,
      -0.1968504 0.1968504 0.051181103,
      -0.1968504 0.31496062 0.051181103,
      -0.1968504 0.1968504 0,
      -0.1968504 0.31496062 0,
      -0.1968504 0.1968504 0,
      -0.1968504 0.1968504 0.051181103,
      -0.27559054 0.1968504 0.051181103,
      -0.27559054 0.1968504 0,
      -0.27559054 0.31496062 0,
      -0.27559054 0.1968504 0,
      -0.27559054 0.1968504 0.051181103,
      -0.27559054 0.31496062 0.051181103,
      -0.27559054 0.31496062 0.051181103,
      -0.27559054 0.1968504 0.051181103,
      -0.1968504 0.1968504 0.051181103,
      -0.1968504 0.31496062 0.051181103,
      -0.11811024 0.31496062 0,
      -0.039370078 0.31496062 0,
      -0.11811024 0.1968504 0,
      -0.039370078 0.1968504 0,
      -0.039370078 0.31496062 0,
      -0.039370078 0.31496062 0.051181103,
      -0.11811024 0.31496062 0.051181103,
      -0.11811024 0.31496062 0,
      -0.039370078 0.1968504 0.051181103,
      -0.039370078 0.31496062 0.051181103,
      -0.039370078 0.1968504 0,
      -0.039370078 0.31496062 0,
      -0.039370078 0.1968504 0,
      -0.039370078 0.1968504 0.051181103,
      -0.11811024 0.1968504 0.051181103,
      -0.11811024 0.1968504 0,
      -0.11811024 0.31496062 0,
      -0.11811024 0.1968504 0,
      -0.11811024 0.1968504 0.051181103,
      -0.11811024 0.31496062 0.051181103,
      -0.11811024 0.31496062 0.051181103,
      -0.11811024 0.1968504 0.051181103,
      -0.039370078 0.1968504 0.051181103,
      -0.039370078 0.31496062 0.051181103,
      0.039370078 0.31496062 0,
      0.11811024 0.31496062 0,
      0.039370078 0.1968504 0,
      0.11811024 0.1968504 0,
      0.11811024 0.31496062 0,
      0.11811024 0.31496062 0.051181103,
      0.039370078 0.31496062 0.051181103,
      0.039370078 0.31496062 0,
      0.11811024 0.1968504 0.051181103,
      0.11811024 0.31496062 0.051181103,
      0.11811024 0.1968504 0,
      0.11811024 0.31496062 0,
      0.11811024 0.1968504 0,
      0.11811024 0.1968504 0.051181103,
      0.039370078 0.1968504 0.051181103,
      0.039370078 0.1968504 0,
      0.039370078 0.31496062 0,
      0.039370078 0.1968504 0,
      0.039370078 0.1968504 0.051181103,
      0.039370078 0.31496062 0.051181103,
      0.039370078 0.31496062 0.051181103,
      0.039370078 0.1968504 0.051181103,
      0.11811024 0.1968504 0.051181103,
      0.11811024 0.31496062 0.051181103,
      0.1968504 0.31496062 0,
      0.27559054 0.31496062 0,
      0.1968504 0.1968504 0,
      0.27559054 0.1968504 0,
      0.27559054 0.31496062 0,
      0.27559054 0.31496062 0.051181103,
      0.1968504 0.31496062 0.051181103,
      0.1968504 0.31496062 0,
      0.27559054 0.1968504 0.051181103,
      0.27559054 0.31496062 0.051181103,
      0.27559054 0.1968504 0,
      0.27559054 0.31496062 0,
      0.27559054 0.1968504 0,
      0.27559054 0.1968504 0.051181103,
      0.1968504 0.1968504 0.051181103,
      0.1968504 0.1968504 0,
      0.1968504 0.31496062 0,
      0.1968504 0.1968504 0,
      0.1968504 0.1968504 0.051181103,
      0.1968504 0.31496062 0.051181103,
      0.1968504 0.31496062 0.051181103,
      0.1968504 0.1968504 0.051181103,
      0.27559054 0.1968504 0.051181103,
      0.27559054 0.31496062 0.051181103,
    ] }
    coordIndex [
      26, 25, 24, -1,
      23, 26, 24, -1,
      27, 26, 23, -1,
      30, 28, 27, -1,
      30, 29, 28, -1,
      22, 31, 30, -1,
      22, 27, 23, -1,
      22, 30, 27, -1,
      34, 32, 31, -1,
      34, 33, 32, -1,
      18, 20, 19, -1,
      18, 21, 20, -1,
      16, 15, 12, -1,
      43, 35, 34, -1,
      14, 12, 15, -1,
      38, 35, 43, -1,
      38, 36, 35, -1,
      38, 37, 36, -1,
      11, 16, 12, -1,
      13, 12, 14, -1,
      39, 41, 40, -1,
      8, 16, 11, -1,
      8, 17, 16, -1,
      44, 43, 34, -1,
      44, 22, 21, -1,
      44, 31, 22, -1,
      44, 34, 31, -1,
      7, 17, 8, -1,
      47, 44, 21, -1,
      47, 18, 17, -1,
      47, 21, 18, -1,
      9, 8, 11, -1,
      9, 11, 10, -1,
      42, 38, 43, -1,
      42, 41, 39, -1,
      42, 39, 38, -1,
      4, 17, 7, -1,
      48, 47, 17, -1,
      48, 17, 4, -1,
      3, 48, 4, -1,
      46, 44, 47, -1,
      46, 45, 44, -1,
      5, 7, 6, -1,
      5, 4, 7, -1,
      1, 48, 3, -1,
      49, 48, 1, -1,
      52, 49, 1, -1,
      0, 3, 2, -1,
      0, 1, 3, -1,
      50, 52, 51, -1,
      50, 49, 52, -1,
      55, 54, 53, -1,
      55, 53, 56, -1,
      59, 58, 57, -1,
      59, 57, 60, -1,
      63, 61, 62, -1,
      63, 62, 64, -1,
      84, 82, 83, -1,
      81, 82, 84, -1,
      66, 81, 84, -1,
      68, 66, 65, -1,
      68, 65, 67, -1,
      68, 81, 66, -1,
      69, 81, 68, -1,
      72, 69, 70, -1,
      72, 70, 71, -1,
      76, 73, 74, -1,
      76, 74, 75, -1,
      77, 78, 79, -1,
      80, 72, 73, -1,
      80, 76, 77, -1,
      80, 73, 76, -1,
      80, 77, 79, -1,
      80, 81, 69, -1,
      80, 69, 72, -1,
      89, 86, 85, -1,
      89, 87, 86, -1,
      88, 87, 89, -1,
      93, 91, 90, -1,
      93, 92, 91, -1,
      96, 95, 94, -1,
      96, 94, 97, -1,
      100, 99, 98, -1,
      100, 98, 101, -1,
      104, 103, 102, -1,
      104, 102, 105, -1,
      108, 107, 106, -1,
      108, 106, 109, -1,
      111, 113, 112, -1,
      111, 110, 113, -1,
      115, 117, 116, -1,
      115, 114, 117, -1,
      118, 120, 119, -1,
      118, 121, 120, -1,
      122, 124, 123, -1,
      122, 125, 124, -1,
      126, 128, 127, -1,
      126, 129, 128, -1,
      130, 132, 131, -1,
      130, 133, 132, -1,
      145, 142, 143, -1,
      145, 143, 144, -1,
      135, 142, 145, -1,
      137, 135, 134, -1,
      137, 134, 136, -1,
      140, 138, 139, -1,
      141, 137, 138, -1,
      141, 138, 140, -1,
      141, 142, 135, -1,
      141, 135, 137, -1,
      148, 146, 147, -1,
      148, 147, 149, -1,
      151, 152, 150, -1,
      151, 153, 152, -1,
      156, 155, 154, -1,
      156, 154, 157, -1,
      160, 159, 158, -1,
      160, 158, 161, -1,
      164, 162, 163, -1,
      164, 165, 162, -1,
      177, 174, 175, -1,
      177, 175, 176, -1,
      167, 174, 177, -1,
      169, 167, 166, -1,
      169, 166, 168, -1,
      172, 170, 171, -1,
      173, 169, 170, -1,
      173, 170, 172, -1,
      173, 174, 167, -1,
      173, 167, 169, -1,
      179, 180, 181, -1,
      179, 181, 178, -1,
      183, 184, 185, -1,
      183, 185, 182, -1,
      187, 188, 189, -1,
      187, 189, 186, -1,
      209, 207, 208, -1,
      206, 207, 209, -1,
      191, 206, 209, -1,
      193, 191, 190, -1,
      193, 190, 192, -1,
      193, 206, 191, -1,
      194, 206, 193, -1,
      197, 194, 195, -1,
      197, 195, 196, -1,
      201, 198, 199, -1,
      201, 199, 200, -1,
      202, 203, 204, -1,
      205, 197, 198, -1,
      205, 201, 202, -1,
      205, 198, 201, -1,
      205, 202, 204, -1,
      205, 206, 194, -1,
      205, 194, 197, -1,
      211, 212, 213, -1,
      211, 213, 210, -1,
      215, 216, 217, -1,
      215, 217, 214, -1,
      219, 220, 221, -1,
      219, 221, 218, -1,
      223, 224, 225, -1,
      223, 225, 222, -1,
      227, 228, 229, -1,
      227, 229, 226, -1,
      231, 232, 233, -1,
      231, 233, 230, -1,
      235, 236, 237, -1,
      235, 237, 234, -1,
      239, 240, 241, -1,
      239, 241, 238, -1,
      243, 244, 245, -1,
      243, 245, 242, -1,
      247, 248, 249, -1,
      247, 249, 246, -1,
      251, 252, 253, -1,
      251, 253, 250, -1,
      255, 256, 257, -1,
      255, 257, 254, -1,
      259, 260, 261, -1,
      259, 261, 258, -1,
      263, 264, 265, -1,
      263, 265, 262, -1,
      267, 268, 269, -1,
      267, 269, 266, -1,
      272, 271, 270, -1,
      272, 270, 273, -1,
      276, 275, 274, -1,
      276, 274, 277, -1,
      280, 278, 279, -1,
      280, 279, 281, -1,
      284, 283, 282, -1,
      284, 282, 285, -1,
      288, 287, 286, -1,
      288, 286, 289, -1,
      292, 290, 291, -1,
      292, 291, 293, -1,
      296, 295, 294, -1,
      296, 294, 297, -1,
      300, 299, 298, -1,
      300, 298, 301, -1,
      304, 302, 303, -1,
      304, 303, 305, -1,
      308, 307, 306, -1,
      308, 306, 309, -1,
      312, 311, 310, -1,
      312, 310, 313, -1,
      316, 314, 315, -1,
      316, 315, 317, -1,
      320, 319, 318, -1,
      320, 321, 319, -1,
      325, 323, 322, -1,
      325, 322, 324, -1,
      326, 329, 328, -1,
      326, 330, 329, -1,
      327, 330, 326, -1,
      332, 334, 333, -1,
      332, 331, 334, -1,
      336, 335, 337, -1,
      336, 337, 338, -1,
      339, 336, 338, -1,
      341, 340, 342, -1,
      341, 342, 343, -1,
      346, 345, 344, -1,
      346, 347, 345, -1,
      351, 348, 349, -1,
      351, 350, 348, -1,
      353, 355, 354, -1,
      353, 352, 355, -1,
      356, 357, 358, -1,
      356, 358, 359, -1,
      361, 362, 363, -1,
      361, 363, 360, -1,
      366, 365, 364, -1,
      366, 367, 365, -1,
      370, 369, 368, -1,
      370, 371, 369, -1,
      374, 372, 373, -1,
      374, 373, 375, -1,
      377, 379, 378, -1,
      377, 376, 379, -1,
      383, 380, 381, -1,
      383, 382, 380, -1,
      386, 385, 384, -1,
      386, 384, 387, -1,
      389, 391, 390, -1,
      389, 388, 391, -1,
      392, 394, 395, -1,
      392, 395, 393, -1,
      398, 396, 397, -1,
      398, 397, 399, -1,
      401, 403, 402, -1,
      401, 400, 403, -1,
      407, 404, 405, -1,
      407, 406, 404, -1,
      410, 409, 408, -1,
      410, 408, 411, -1,
      413, 415, 414, -1,
      413, 412, 415, -1,
      416, 418, 419, -1,
      416, 419, 417, -1,
      422, 420, 421, -1,
      422, 421, 423, -1,
      425, 427, 426, -1,
      425, 424, 427, -1,
      431, 428, 429, -1,
      431, 430, 428, -1,
      434, 433, 432, -1,
      434, 432, 435, -1,
      437, 439, 438, -1,
      437, 436, 439, -1,
      440, 442, 443, -1,
      440, 443, 441, -1,
      446, 444, 445, -1,
      446, 445, 447, -1,
      449, 451, 450, -1,
      449, 448, 451, -1,
      455, 452, 453, -1,
      455, 454, 452, -1,
      458, 457, 456, -1,
      458, 456, 459, -1,
      461, 463, 462, -1,
      461, 460, 463, -1,
      464, 466, 467, -1,
      464, 467, 465, -1,
      468, 471, 470, -1,
      468, 469, 471, -1,
      473, 475, 474, -1,
      473, 472, 475, -1,
      479, 476, 477, -1,
      479, 478, 476, -1,
      482, 481, 480, -1,
      482, 480, 483, -1,
      485, 487, 486, -1,
      485, 484, 487, -1,
      489, 488, 490, -1,
      489, 490, 491, -1,
      492, 495, 494, -1,
      492, 493, 495, -1,
      497, 499, 498, -1,
      497, 496, 499, -1,
      503, 500, 501, -1,
      503, 502, 500, -1,
      506, 505, 504, -1,
      506, 504, 507, -1,
      509, 511, 510, -1,
      509, 508, 511, -1,
      513, 512, 514, -1,
      513, 514, 515, -1,
      517, 518, 516, -1,
      517, 519, 518, -1,
      521, 523, 522, -1,
      521, 520, 523, -1,
      525, 524, 526, -1,
      525, 526, 527, -1,
      529, 530, 531, -1,
      529, 531, 528, -1,
      534, 532, 533, -1,
      534, 535, 532, -1,
      539, 536, 537, -1,
      539, 537, 538, -1,
      541, 542, 540, -1,
      541, 543, 542, -1,
      545, 547, 546, -1,
      545, 544, 547, -1,
      549, 548, 550, -1,
      549, 550, 551, -1,
      553, 554, 555, -1,
      553, 555, 552, -1,
      558, 556, 557, -1,
      558, 559, 556, -1,
      563, 560, 561, -1,
      563, 561, 562, -1,
      565, 566, 564, -1,
      565, 567, 566, -1,
      569, 571, 570, -1,
      569, 568, 571, -1,
      573, 572, 574, -1,
      573, 574, 575, -1,
      577, 578, 579, -1,
      577, 579, 576, -1,
      582, 580, 581, -1,
      582, 583, 580, -1,
      587, 584, 585, -1,
      587, 585, 586, -1,
      589, 590, 588, -1,
      589, 591, 590, -1,
      593, 595, 594, -1,
      593, 592, 595, -1,
      597, 596, 598, -1,
      597, 598, 599, -1,
      601, 602, 603, -1,
      601, 603, 600, -1,
      606, 604, 605, -1,
      606, 607, 604, -1,
      611, 608, 609, -1,
      611, 609, 610, -1,
    ]
  }
}
